<mxfile host="app.diagrams.net" modified="2024-01-11T06:33:22.305Z" agent="Mozilla/5.0 (Windows NT 10.0; Win64; x64) AppleWebKit/537.36 (KHTML, like Gecko) Chrome/120.0.0.0 Safari/537.36" etag="_fe7yP_-n3-VbcRVYgub" version="22.1.18" type="github">
  <diagram name="PÃ¡gina-1" id="yPcATmFsCH53CD1rut7I">
    <mxGraphModel dx="1167" dy="580" grid="0" gridSize="10" guides="1" tooltips="1" connect="1" arrows="1" fold="1" page="0" pageScale="1" pageWidth="827" pageHeight="1169" math="0" shadow="0">
      <root>
        <mxCell id="0" />
        <mxCell id="1" parent="0" />
        <mxCell id="AXg9mpy4CLcozAyEGudk-16" value="" style="shape=image;verticalLabelPosition=bottom;labelBackgroundColor=default;verticalAlign=top;aspect=fixed;imageAspect=0;image=data:image/png,iVBORw0KGgoAAAANSUhEUgAABDkAAAGjCAYAAAAmS86WAAAAAXNSR0IArs4c6QAAAARnQU1BAACxjwv8YQUAAAAJcEhZcwAAEnQAABJ0Ad5mH3gAAN3ySURBVHhe7N0JXJTV+gfwnwLDvgrIoiwKuCAq7juaa25lVpqZVt52vZbmTb1mZf4rr2l1tUW7tlhZVqalmWuuuOCCiriBAiqyiAgCAsPi/7zLwAADIqDC8Pv2efN9z7zzrjPDnGfOeU4Df/+AWyAiukMffbRYnSMiurdee22aOkdERERUUkP1XyIiIiIiIiKiOq2Bl5cXW3IQERERERERUZ3HlhxEREREREREZBQY5CAiIiIiIiIio8AgBxEREREREREZBQY5iIiIiIiIiMgoMMhBREREREREREaBQQ4iIiIiIiIiMgoMchARERERERGRUWCQg4iIiIiIiIiMQgMvL69b6vw9Y9GgAdpamKlL1ZdaUIhobb66RESV443gYCA8PE5dJiIiIiIiqtvuS5CjmcYUG7yd1aWakZBfgEcuXkN6QaFaQkTlc8KQqTPQvwkQv/sLfLyegQ4iIiIiIqr77kt3lbuxU3dTEwy2sVCXiKhiqdi0LhTxuabw7PMiXh3hrZYTERERERHVXSb29vZvq/P3jJNJQzzhYKUuVc2hbC0Gxl7Fp6mZeNDWAo5im1Jrjt1ZueoaVGkjXsXC50ajd5MU7DiWqBbWXZYDJuPdlx7DkK7uSNl9HDV9Rnd7+/dM+jkcOG+OwHbN4Nm8AwItonHgXLr6IBERERERUd3DxKNFhuPVhQuxUJpmjIKrWnpb3V/APPV5r45Qy+q54GfmKddx4Ty80F0tvC1XjJqhXv+3JyFYLaW7LG4DPv5yl9qiYxImD2aLDiIiIiIiqrsY5DDENQhDWqvzFbLEkI4+4v81x2/YC5j19vtGEjCxhE/HIZW7Pq2HIKjSkaWKZW9bilkzZmDG/JUIV8tq0t3e/j0nBzq2Iy7bEt4DGOggIiIiIqK6674EOWoiNahdw4boYqmRJ2m0FklBTaRQzcpGNmzh1yfk9pXz1o+hi7cp8nNrbmQXW1dPOFmbqkt1mbiOWYCpdzCG37bObIkhD7QSVz1fXEu1iO6tuE1YuoKBDiIiIiIiqtvqbOLRFuam+KaJkzx5mJnIZVKejurLQEa2qHY374IhbmpROXr09BMV82wkXb2hllAxS2RnJYt/nRA0qIdSVB63IQjyNgWSk5Ck3Eq6H0oEOibihb4MdBARERERUd1yX4aQba4xxfoaHEL2ekEhdmbl4q3kdORX+WyknBwh8Mw6g+3nPdG/rS0yTqzAvO/OqI+X4jYKM6b3gGt6BLbH+6F/a0vE756Bj9erj+uxDR6FiQ8Gw9tRbRuSn4HkU6FY++t2RGcrRVIei3FiG2Vl48xPc7HiiLooWDbvgeGDQxDU1AmWukYfuWKbZ0tusyRL+D3wGEb1agVXW/VJ2amIO7oBKwr6Y14fT2SfWoW5X5fugGGL4GGPY0BHv+LnFeYjOz0e4X99i7XhGUqZHt25xIduR37X/vBGHLbPW4pNBo8L6PHcPIwKMEPctjCYDugh34NVb68o2RXE0g89RgxBSGu9li6F2UiNC8eGr9ciQn/bHSdh3tiWsLyyCzM+2qAWClKCVd15/gaMenoEunjYwlSKuol7En9oPVb8Fo6yZ1RKedsXbIOH4/EHOsDPVd2ukJ+RjNO7f8bKnbphWltiwpxJCLLPRvRvc7Fsv1qsx/XRWZjR1QnZ59Zi7pf75LLKbbsGeIfghYnD4Webgeg/v8Wymtw2ERERERHRXXRfWnIonUuqR2q10ToqUZ56XkjGv5OqE+AoKWnrUcTni0qlfwhCyumz0nJgkJycNPnUJiQpRQZYIujRGZg9rge87YHUxHjEX05Gap4tXNsOwaQXh0P3W3lGcpx4LB7JGUrXl+zr0rrSFIckvVq3d98XMOPFUeji6wSz7GR1nWRkmCnbfGHGJHQpc8yW6DJxBl54UByzranYl7Lt5BxLePecgFeD7NT1SrEMwmMzZmNc35Zwtc5Tj188Lz0Plo7e6DFudsVDjxZsQui5bKnPCoKHlbOe5RB0aCYOODsWRzfnqYVlBY+dgFGdveHU8AaS5XMWx5FtCSffHpjwz8eKrmOlmAfh1Rnj0MMxG0lXxLaSxQU2tYVn93GYPK6lulJVDMekcSFo6WaL7BTlGOMTxbZtXRE0bBJe6KO7MWew70Kq+NcSnm0MtXJxRUhzJ/FvBqJDlQBH5bddA+J2Ydn6cGQU2sIvOEgtJCIiIiIiqv3q7BCyV/ILsO5GOU0DqiQA3Qb5wC4vBREbViO5WW+0cmsMB4vj2Hc6S11HZRmC0Q8FwSk/Gls+24384H4IcjFDRtxWHDinriPpOBGTh3jDPCMaG/73Ib7/6wAOHNyHvTvOwbxNBzTz8IKnRYR4ThZSo8LFYweQ3SxE3lbyoXfx8Upp/XCcu6Zuz3sUnh/bTlT0pV/Yv8SCbzfKz5G2uSs0BjYt2qOpsytaNCvEvrAY6DKFWPaZhEm93WGWH499yz/Esg175eft27MD5/KaoUNbd5iL9fKvRugNISsFRl7AIG9z5CeH4fv/fIo1u6V9Kc87kOmFDq1c4eztB5f4vYi4qj5NcNe7Hut2OaB9j6ZwbuSErB1HcEldR8f74ccwyMsSyYdXYPVpz+J7sDO8xNCsLgEBMD/xC/771R/YJZ+zOI6dl+DSuQPcxbbtUncgPEFd2aMD+rVxhllGHLbq35AW3cT52MHMqTEaRK/Fgo9WY7e0rX27cM4iEB3EY9ZOdtD+fQQVtl0ob/tohsDWidjy3/9i9d/KMR7Yvwv7brVAbz9nONs2xF6xvnRfUq+6o1MPT9hZmZW9LgEP4SFxvyyvn8K63yIghUPuZNvVJrXkeDwE7hb5iA8XrzEOK0tERERERHXEfWnJURfsCz0jVy5dWw9B6d/2XR/sAj9LICNKVDLVsrIsMbxPS/H/bETvXIldJWrNcdiw+TQyYApPvy5incrpMSgYrqZivyd+LtuFIDsaa7/YhOhcqeFEB718Ipbo39FP/D8fcTuXYe35koGhOOnYzhuoGrsNQUhLcWT5cdi19JeS3UGEjP0r8O0h6Qo5oWXPCnJuJG7C0TixfUsfdBhc+kx7YEhbJ3kfEX9J+TvKF/HzMqz4O1pcTX1ncDpBKrGErYdSUiniWu1ata9Et5S49bsQLcWyzBvDu61Sduc2YcUnaxFeKiaQvS1Wae1j37j4tZS4C2ekU7b0RFCpYXb9OnmLqwokn9mGaKVIuINtV0dRV5V8xO/+Ah+vZ1cVIiIiIiKqO+5LkKMmRlepiW1U6JSoUEqVc3s/hJSohLbEkNauomIej6Nby8nXIesPP6ninRWH8N0GWpycSoWcrrTSlVM/+LhIQYJUnC5vv9miop4oBSxc4d1RKZICCT5SvxpxvKc3GzgOZGNXvIEON2085Yp2flxEubk04o7FyYEgS3c/lN+pIRvb/1YCOt5th8hdfHQsB3eAjzil7HOh5e6jBPuWCBn2GCa9/CpmzJ6H9+cvLMpj4uQcLP9bKdfisavM/sKRJAcQTGFmJhdUkSVcO/fHqHEv4NWpMzB3/vt4f0EIPKWHrG2Vf2XJCD0vRzlKdVlpiR7NpCsv7leZwE9lt11FDHAQEREREVEdd1+CHBfz8qsdpIjT1kjD/ApkY9ORWPF/S/j1GlVUObccPACt7MWjF8KwQb8/RWkBduKZgnVLPLZwIRaWme60cuoNJ1vxT34GUivYb2qWmtdCd2fdnCDnC82+IarVlScntxT/3rgRrxQYcu6G0rKioZm8brlObUKEtHPXYIwqChiJ69LZWzwvGeF/lU52WpqS2+T9OZMwvG8XtPRuDCerfKRejUf89Tt/HWRXdE7VIQUJ5szDjMeHoEewHzxdnGB6MxVJccnKdSol+a/TkI7EsmkQisIcrbvAR7y+8uPOYLv+k+5w23dMP8ARugLLGOAgIiIiIqI66L4EOaQEocdzyk8yWRkHbtbEcLG3sV9UzlPEv65BGNJaKnDFkLZSxVw/IWQ5LEwhNwjIzVCSRJY7Jas5F27HEqYVRhLK4akGW3KzK0iQWpZl9ZozlJKMTQelriaW8Ok4RDme7iHwkyvzEdhUUbBI0n0CHuvqCtPseOz7eSHmvjELs0SFf+EnH2NXQvVeRzXHFaMeHy7OKR+ppzZhxfwZmDFnFua+txAff3ba8D3O3o4zclee4i4rLTv6wBb5iD2xSS94UYVt34nSAY51pbsFERERERER1Q33LSfH+1flzhpVcjInD5syc9SluykOG47FiSqnLfykvBPdRyFY6qkSF4ZfTqmrlOeE2h1FSvYpKuMflzutqiCvh744pEpJJExt4VSUb6MsO3MpOJGPfF0t9UiSUgm2tIOPXFCWq7nS5UNfRIpyf+zsKmhn4mapBCy02SXyWxiSvXsXotOlfCFBGOImKu29pDwhGTj9t35l3rCQdj5i3XzE7f4Yaw/VUMuFmuYWgpZSc5/rEfjl6+04U6lcndnYFRUvzkzXZSUYPZvbiuJYROxW1pBVaduVpBfgSD64igEOIiIiIiKq0+5bkEMKVEjDvt4svLNxX4+J572WmKYu3X3Zm48iVtT6LJt1wKR2nqI6mo3YI7evmEtJMZOvi3+sPdFSbgVSXRGIlpNsOsHvgXKyeFiKyrCHqRxYiQ5VyxCPDCmhprU3gksluFR4q8OVlnIkTu7eIgUl+peNgci8e/nJeTsyLh3VS5BZnjPYdErus4KgYSPgJ1XakyNEmfxghWwtpSYseciWrmcJLRHkWc7B3Wu6FjPZN8pcC8vBPmiszpeWvTkCsbliHanLSscO8LY2kNC2itu+rVIBjqW/RlQjwGGJ/i+/j4UL5mJCUT4YwW04Xp2/EAvnTIB+1hTXYa/i/YULMfepO8ilQkREREREdBv3LcghWXsjG0Nir2JGYho+vpaBT1Mzy53+7+oNPBd/HU9euob4vAJ1C/fCPqw9Jirnpt5o2VxUNdOjsWu/+lCForEtQvqV3hZBj05CD3u1WMfSD/2fmYxx+hVCIb9QyTFh51A2kKEb8cUp+HFM6i4l6NAjtjdkUn9l1Jcz+ok8wxF6TnqWJfwGlj4OKdfF4+jgrC7q042KIs57wIuj5O3qs+0+QRy7kxxQqTgBa7Hk30IRLY7LtmVLuEotM05sqlSekIxs6ZpYwru9/kg04tgfHyXnR7mbWj4yQ66Mzxp7m/Sw8Wp+EtdWGOUtlyi8QzChu9TFqTy7EBEnnmnpiS69pCBaKqIPlrqeVd52RZzQf8SQGgpwSEIQ5C2OpKEt/NrqBS46+8FTGp/Y3g8d9F7rXQI85eO29Q2qIGktERERERHRnTGxt7d/W52/L27euoUobT6OZOfhULa23CkiJw+X7mpwIwDdBvnALi8FETvDoZ8mIivWDi16N4NDQ1Ex3/s5NpYactU9uB+CXMyQEbcVB86phULWuQRYtu4AHxdXtOr1ALoHByG4czd069UPQ4f1RitXE6SE78JxvWQZyVYt0buVE6wbt0X3tmL9Xr0RkLsPxxPEg1cjcMkiEB28nUV9NwQPdG+PIFHx79atNwaNCEFLRzPkX96FFct2Q79HQ0pEFlw6t4K7vXQcvdGpXTt06tINvQc/hB7NCnHuTDqcna2RL7a/45juzPMRE5EB9w6BcHdpik4hes/rPxRDO0gV8gxErPkvfjlXuesBXEJWk+7o0FjUetMjsebrI5BSnhQzfA/ibnmie5vGsHYORLfO7dGuQxfl2H3zkZBYCDsbcd76x+7RAf3aOMMsIw5b9Q+gRTcM8rYrdZ7FAroPgo+o9Kec3IFw6XrDCb2HD5FbV1ham+HS7uPK8RrafmYKHFp3hY+DLZp26o72gcHoIt3nvu3Q6Fo80myl1hgZiNt6ACUuiXDJPEDc88ZwshPXJTkc368/A6nxTZFqbLt82fL9tdGcwarfwqsZ4JDcgHOgOEabLJz5e7XyepWLnRHYUdzTrDPYsvp40T1NaxSIrj52yDq7Hb+cKHsviIiIiIiIquK+tuSoM7I3IfScqAZmx+KowWFYyxOHDZ+8h1X745Aqnmbr6gnPJmJyFRXtlGjs+/kLUcFTV9XZvxK/hMYjo9AUtm5iXWexW72EF3HrP8a8b7fjTKIotHZVttfEFZZZyTizcxXe+2SD2Gtp4Vj10QpsOpEstmsJJ2m74nm2+XHY9+1CrEguJ3lndhhWzl+KtYek4zcrep6rLZAaE4a1yxdi5aE7qx6f2XoU8fmiLn9qEyrX/kM4shIf/RaG5Ix8WDoq5+yEeOxb9RF2VTvrZkVScfqSsoPU6LDbHG8yNixfge3nUpENW7jK99kSGWc2YcUXt8lzsT8McWpUI16sX7Z1SzW2XRFxf9euC6uBAIdEHOMnszDjjXlYeUQtkiRuwMdzZmDG/JXiVVgs+c+PMWvGDMz77nYj6xAREREREVVeAy8vrztLilENc0Xlfqy9lbpUc0bEpeD8XR9SlkjVcRLmjW0Jy8u7MOOTDWohERERERER3W9syUF0h1x9XSHlBkm9Wum2KERERERERHQP3NOWHCHW5mhjIQ1xWrN+TLuJ1IJCdYnoLrLsgklvPIaW1hmI+HoeVlZidBgiIiIiIiK6N+5pkIOoThrxKuYFmSE1C7BzcYWtOZBx6hcs/Lqm8lkQERERERFRTWB3FaLbycoG7KWEp66wNclA/P5V+IgBDiIiIiIiolqHLTmIiIiIiIiIyCiwJQcRERERERERGQUGOYiIiIiIiIjIKDDIQURERERERERGgUEOIiIiIiIiIjIKDHIQERERERERkVFgkIOIiIiIiIiIjAKDHERERERERERkFBjkICIiIiIiIiKjwCAHERERERERERkFBjmIiIiIiIiIyCgwyEFERERERERERoFBDiIiIiIiIiIyCg28vLxuqfNEdV8DbwSYa5CcE4U0tYiIaqcAX0t45GRjZ4JaUEs5NnbH7JHN0czFBpqGQNahvRi7OVN9lIiIiIhqEwY5qGbZfYAVw7vC+sZBLNkwE6Fq8e29hA/GPQ4fdanInWzHVGzjIbENczGftB0Lts9HuPJInTW+1w4M91IXimQifMMILLihLlI9YY8ln45EJ9t0HF72B6ZU/s1VK42bOgxTOjqJuWycW/MrJv6ulNc21p7N8flEfzhK7R4z03ApIRtJZ87gneO5ygpEREREVKvU3+4qDa1h49EZfsEDENhxAHxdrdUH6P5IQHxMFGJ109Uq/EraOFgJcMjzXghUZ+uy5CS9axKTgCy1vN4aF4L9K5+Spw2TLdVCPcGtsUF9fP97vvBQi6vPErP/9QC2Lh+CJT3Vorruvl1LiQ26+0kBDoklPJrZq/O1jTleGq4EOK5LrTc+PoCXVx9ngIOIiIioFqt3QY4G5q5o5NsHrYO7w9vdHub1N8xTy6zDkv3PY6ZuOlOF9utX1iEsRZnNOrMbO5TZOm1LlN412b8HV9VyAhr5+WKEOq8zoqcvGqnzsLdBX3W2+lwQ1MYTNhYaddm43NtrKcnEj/ujoS0QszmJOByWrhTXOg5o6iL9m4R9WzMZZCQiIiKqA+pVFb+BfVu0atMWbk6ionIzGVdOn8V19TEyArc2YvGWfhi7qh8mHf0e8WoxGY9OFibKTJ4WcPLDoBKtKpwwso2TeG9nQjxKt3G/r+W+VfsR8sx36P78VsyqrV1v3G3QWPo37QZOF8olRERERFTL1asgx60bV5B6MxWJUaE4dfoErt/MBROSENUdAfY28r9XEhLF/+3Rtqeuy4PQ3xcBVkDm2WhcUYuofLyWRERERGSM6nniUVe4d2wL6av9zUv7EZNsjI2R1YSecgLP+Uhr/C88G9wVnlJrFklWHML3LcSCq5HKss5tEoj2bLMeU9qKStLFnzF27+dqqVDief8BfOdhTKA/XO2U/eWlRmHHnmn4Kus2OTeaLsdPvf0rkXi0uglLndCz6b/wSGAwPB3FMTYQRQVaZInjDD0wF19lpCqr1RST/hjf6in0CvCGg4ValpuJ5IvbsProJwiVmu+XS3eulUg8atIVw5uMEvsJFOdlAzNTtTwnFfHnNmJ15AqElfPOd7CdimndBsBX/3nimuSJ4zy5ezQWlHNJqvq8OzHutZGYEmyP2K27gIEh8Ll5CstePIJvxGNT5o7BOL9sHF52DM4viMfyorFq0n4sUZ6qsLLEC+OCMKKTHxpZqS0ZxDWJPXEEX3+ViC03lSKZlLNiSJmsr4Zd3IXucy6qC8U8Wrlh+tj2aOvlAht1d+XuT09Ady9MGRGEtu5O0BQ9LxuwkHJnlJ94dNCI1nimXwv4OCsBDHEDoE2Px+EtYVi0PrtEwKK617JTHzc80a012vqJc9N14xH3O/N6DA7/eQyztpdtA6LbZ2mxm77DE6vUhdJ6BmHrC+1hI1/jeIye2AUv9vGFjZl0YQqQmXIWm748gkWnldVrlHtz/DTJH9ZpUfhw6XmIK0VEREREtRwzUtQXdm54oO23eLN/bznAkXdTVD7zRbm1N4IHLsYHnt7KejVGg17df8SU7oFwtVX3JyrwZk7+GDTyW0yzU1erNi200rZ1053kA2wwFNOGrMGU3mrQR6qQy9dFA2uXQAwK+RdqMsektcM8fPHoHAxvqwY4ctT9mdrA1f9hPNuqv7JiDejZag7G9+wKHxcbmOnOS7o2Fk7wbDtenPcH6CcFdEoJaLocS0Y8jADpeeLaFl1XcT/NrJzgWE5+3qo+r8oKLiJCiilYeaGndNmsPNHJW9zD1Ghs0VX+zTSwVWdlVvZY8t4oPN2nBRqZZ+JKTAxiL1+F1swJPl0G4p0FQRhnpa4rycuGNkc36VXYi8r0p7LRqR6ju+PbWQPRw9cFNtLrVFpPehOIeyDvb3F3TPdTV9Yz+tkH8OVLIejUxElcPfV50vblAEd5NJg+dxTeeayjEuDQHXuBCTT2Xujx2KP4dq4neqhrl1CVawkvTP+HODc5T4mJeozZgIkGNs4t0HfiKPw4Tg186MlV1yta/06Yu2HJ4kfxen8/2DQsUJ9vIvbXGo++3guzmyirEREREVH9xiBHveGNwDZOyEs6iNW/jcBT6wbjqV+mYctFqfKmgU+nqRikrFgz7IIR7KtBVsw6LPm5n7K/Xz9BuJQEpYETugRPhaeyZjWtwFxp27opLEotv51AjO85FV2kZjwFqYjcPg2Tfla3saYfXlz3OXbEJIhKeg3RvCQHmBykH59Tw+V7MPY3dX+rR2PBlo2IzKi57Ad5GZEI37MQM1f3w9g1uvMagXe3hyvJEx27YrhPqcBWg0kY39VfDlLEhupdD/kYxXZWP48vDPVdqOrzqsCnUXErgG/Co8X/bRDQxQUeD3ohwAy4djYG65WHSzHB7DeGoJOTuAHpx7DklT8w+q29eGL2JoRM/xOHpbyX9u3xwutuxaOI/BKGkOd/Vaf9iJUL03H4W12Z3jS/VAaY4BaY/ZCojIvZzNNb8dYrq5X1Jq3CxM/344r0wrLyw6NPe6GT/ASFx5CO+GdfTzm4cWX3Wkx8Rn3e86vQ/dU/cTJDXbGUES89gEf9pL2l4uQvv2L0JPW4nlmFD3fHi62JK+XXC1PG6ZqFVOdaSrJx5dx+fPPJKoyesEo9xl/FMa7FziT1M6VPEJ5WVi6y5vOtReuGPL8Vh8s5H4Mat0AnZ02J6zn6/b3KtTTzRcdBxedGRERERPUXgxz1SN7Fdfjg75lYm6N2FbkVjq+OHkSaNG/tj+Aaa12hSDv5Cabv1+uCUbAOS49HKoEDj0CDLQnuGcdJ6Ocl/dKcifDNE/Fuklr5V6Xd/BnLIj9BmLpcXYMChyrD2944iGWbpxXfA1kqwlMWYnHcHnW5+sLiZmLBpY2ILdHAIBORSXMReklZcrAu1YzAxhuu8o/vmUi+WvJ6yAqiSm1PVdXnVVk6UuKAK39dxDnxYtL4+mJWoNStJB4R66Vf97XQqtEpc13LjOAW6OErHWQq9n0VgVX63URSUzFl3Sk5EKDxa4Gn9VtzVNGUEe2VkUmS9uOt90t2Szm3PxpTflH2B6/WeKKNXCyY4IV+rSEdpfb035jyv0ycUx5QpBYgR50tyQ2PdpKHAMGVnVvxXIluKQVY87+/seq09HqTgpl+pYKZVbiWsquYPj8ay44UlMzZkZqJWevPileCYGVTw8POildY+B+YqHc9r5yOwZZopUWIRxPlGtSkge3dITVCyoq5yq4qRERERHUEgxz1Rhx2hH6CyNJ5GG4eQIz8a6oNHMt2la+6jINYfWKdEkDRk5UQhWRppoE7PEu2f7+nhvsGypUXXNmN79Nukx+k2h5HV28lR0Lyqc+x475mwcnE2evlnG/GUcTLEQondBmyCm82HQrPygSiqvq86roZj8NxWsCiBTr5aYCEGKy5LD2QjRtyNMAeTsHSv8Cgbl5K0CElGpvD5aKStieqlXUX+PaRZ6rBBW2byFEfxIZHY588V9KVTRdxTj5GF3i0lYsENwS4S/9m4kTo1con/BziCR8zaeYijvwkh07KWBZ+UQmqOLuVaDlS5A6u5W3tToU6knPNyojA1x+ll7kuGbquRBrlmldX23b++GRMMP736iD8s6N4316LxepdFSXAISIiIqLahEGOekMLrcHKdS50Q8xYWVa2FlMJYpsGq1u3pDwNEg2sa+AX86pysFIqRFkpooIuz91NjdRzzUS89LP5vWLij35uUzEleDk+6F48PdK0vMrgOizethHxUqXWwh2BvWdg0dgd+G7IN3jD+2EElhu4qOrz7pQlGpV6zSwJiy56nV05dRGH1fnSnHWJMa188cw7vfBjmakFnOUXpiVs9AYZqRqxDTmprNJKwrCruKJGApwbq9HFnk5wlmdSkbBbnqkcJxu59QcyUhFbTiLT4sCDPdzlRDNVv5b6OnV0wex/BOHbEteydY234FDUaHOgcjm6NUYz/8ZobCP+PGpv4MKZRMgNYYiIiIioTmCQg4rk5VY2n0VN0CJL/oWYap4NujT7Bt89vhwvPPAwerbyh49v8SSPIlOOrKyFmP7baCz5ezsir6Qir1BKFuuN4J5T8ebja/CmS6C6ZklVfd6d0UAjdfnRtykG56SKfV409v1SiUqwlYu4Br4GJk/YyK0h7hUTaHT7K7wHlXcpF4lM7EsO5lTzWvq54MuPx2HJ1CEY0ac9AkpcSxcl6FJH7dq8FyPmb8LLX4fjTKYdmvXshtn9lZZYRERERFT7MchR7zWCRh7uU4usXAM/VzaQqkM1yNQGyg/IGbh5P4Mcah3O2iFA6bZyt8mtZaQuQfegsuQ4Dy9084ZZAy3ij36OxT+PwNhV/YqmJSdu97N0KkIT5+PdnaOLkqLGSq31TZwQGPISRikrGVDV51VHKp578Tt0n7Qfi8q0YrCEndI0Arm6QMLlvRg9QaxfwVTuUKaVpstjUbz/spzgrDbgSElS70e6VmpXJViiUVGeDj1WGtgZCsRkqe0vLGyULjmGtLFXW4mkI6HcRDOVu5ZSgOad54agjZzE9SzWf7UaE0tcw11qkta67VJ8EmZsipVbtzi2aGx4ZBoiIiIiqnUY5KjnrJ27wUeKOmijEJmklJVg6wbfUt0NpKFQnwqsWmU9wCsYrtJMajT23scgx46kBGWmaW+Mv+s/O29EjLo7n+YvIUCZvWt6evqr+Ua2YfGZnxGWrx/UsIH1HQ1CoSRFnblpo5JLReONgEolqK3q8ypD1xqhPOLxQulfDTRqBGvN2USlK0ZjLzxdpaFGdS0bNLC4bS6Zq4iV+4ZoENC55OgpOh4P+SFA7tJyERF/yEXAyXRck89LP0+HjgazZz+gPqeUI2o+ETMv9NAbPUXflC5+SrDy4kV8I5fo3Pm1BDzV3CHZOPlnGN7bqS2ZINXJRNmXMcjOUy6Pgw1aygVEREREVNsxyFGPWVtMwhvdg+UKcdrptVitn7MjIw5X5WVvdAkcWtTawcFxHt7XDYV6h6ytZ+CFYKl2pEVsxAoYyv94r8THbMQ56WfzBu7oN3g5nrUtmYjBwepxvBA4FV3U5eqJw/dndKPKDBXXfCp6lrh+Tgh2noFp3r3V5erJu6X+sm/vjV56tU0Hq/F444E1eLa8AJXVwxhu6w8HdbGYDQKbBsJRmr2VgPjSw35W9Xl3zB7OcoAhs4LWCBLxuDQkrL5N0TghlZl5YcTrHTG9bakXsJUJRgzxw7eTyxuhI1XNoWGJNsPa4+kK83YUYNk+Nb+FV3e8PdkJnfTyXwT0b43lI5WgQ+aRY3ivqNVEIg7HKPfOp2cXTNENfuNkg/cXjMIIL/HOMRSQuByDndHS8zTw6f8AFg000cuJYYKnJw/Eo1IyUXEOh/+6qCburMa1LAr4WMLdV28EFXENx03sjq2Let2lnBz3UUP+qSQiIiKqKxp4eXnpV22NnCvcO7YVVcrbSUbskRNlh8Ksk17CB+Meh480W6BFVmoCrmZqYWbjDk9nUdltICrFMT/j3f2fl/w1VlRQh3f4EeNbqhXiXK2oPGtgJv2SXJCKyPO5CJR+zr34M8bu/VxZR2L3AVYM76oERfK1SEuOQ1quqFuKCrenk1LjTju+ENMjN5a8vh5L8V0Xf3VBMBH7knIGiFdnXrZaaReun5qPf57boy4JVX2eILVIWTRYL2AjjjdPeopuGzcOYsmGmQiVH6wuG/QL/BYvtNN79eWI/Um/kpuL/YljyDoxH5NOblcek03CvIcfh6+6JDFTE6YWPVdyYw+W/D2/eLhbqzn470P94Sq1wNFdB905CVk3MmFtZ1N2f02X46fe6rWU7reuLqsenxScSj70H/wzSv8Yhao+74554ceVIeK1fBHrJ+zCe2qpIbPnPyUHBa5s/Q6jv1PKPDr6YcnL3eGh6/JRkK0GDUyg0SUmjfkb3d8ynIrW46Hu+HG02iJCVPS1ulE9JBf3I2R+yeeNe20YpgSr91u897TShRH3QaNcFGhjdmHWWxdLjr7iJ85xljhH+RiVfWgsLOX5a0f+xBGXkRjklY7Dy/7AFP0XppU9liwYiU66EZLyxLlJ98HMEhp5d9mI3fQHnlilO+bqXcspc8dgnBw4EdR9Kccp5KQj08QeNmalt22DRQuHFB+jUPQc3fHKLuKP58OwSF1CzyBsfaE9bDKOYckrESjdm2jcayPFdRYbvbgL3edcVEtriHtz/DRJahmVhLXzw/GVWkxEREREtRd/nqpXNLB28YacfNJJg6yUKIRtn4YXywQ4JJnYED4Xq0/EIStfLEoVVjMt0i7uwerfJ+JdXR6B0jJWY3XoQcRezRSVXQ0cPNRkl3ZA2pVwbFk/Gi+WDnBIpEq4qMAXTbqkiKKirl9uXXqYyKo+T8hKm4sXf52PLafjkCZ1nTFV1zeRzvMgNuz6Tw0FOCSZ2BEpzn39OiUxp3RNRcVa3l9eKuJP/IyvTpcOAogKsd45SFMR3XPlyQYlUjXcnI+5G9bhnLgHEnkdUy2yrkZiy8an8c/jat+Z0rIuIl66b9K1kO63bvtSsEq6HuufMByoqOrz7gE7XeIL4cqRaIyesRbrwy8iUwpQmFjKlWwpAWhmSgwOb/wDUxaUP9bOld/3Y9a3+3EuJV1UyKXAiPp8eVICF/pWffQn3vpOXV+6l+q+tOkXsW/Nr3iudIBDEn0R0z/8GydTpHunBF/k9X9Zi+c/SVdzdhhwMx1T3vgV3+w+i2sZ4tyk4Ia0P2Qj8/IR/PrhWr0AR9XoX8slH/6BVWHiOkqBG3VfyElFbNhWvDdzF84Y7IomzsdKPS51KqI7XnXSvY2JiIiIiO5UPWvJUR/pWnJEYcOq5/G9WkpERLfBlhxEREREdQ5bchARERmSdBOp6qyGfy2JiIiI6gR+bSMiIjKkMANJadJMY/QYaFOUgJmIiIiIai8GOYiIiAzKxFe7EuSRchw798JPL3fEJ2Pa4a12zBpCREREVFsxyEFERFSOSxHH8e/VZ3DpWi7g4IJm/u5o5VYi1S8RERER1SJMPEpERERERERERoEtOYiIiIiIiIjIKDDIQURERERERERGgUEOIiIiIiIiIjIKDHIQERERERERkVFgkIOIiIiIiIiIjAKDHERERERERERkFBjkICIiIiIiIiKjwCAHERERERERERkFBjmIiIiIiIiIyCgwyEF0r7gPxiv//jdeGeSmFtQSwU/i3+K4ngxWl4mIiIiIiOqoBl5eXrfUeaK6RwocPNsJDupikcJ8ZF49i9D1G3A4KV8tvM/UY8WhFfh0S6JaWL724/6NYb7qgj5tDjKvX8aZQ3uxKyIeOYVqeVVJQY6hPojd+H/4IVwtIyIiIiIiqoPYkoOMQ2YioqOi1SkWiTcBm8aBGPzsKxjWXF2nTspHWpzuvMQUk4jMfFNxbn7oNPxpTJ86CX29TdV1iYiIiIiI6jcTe3v7t9V5orrH1g9dgj1gEb8Ln/+0HZGRkWKKQPjBUETc9EJbf1c08bHDpYNRSFOfct+ox4or4Th0PlMtLJ9bUB8EON7Ayd++xu8HpfMSU0Q4Dh4IxZ5DF5Bh3wQBnq7watMGVjGHcD5DfeKdcm+LPv4OSIvag4jbNzAhIiIiIiKqtdiSg4xW2pE12BsvZmyawMdeKTMaOfE4tm4ZPt0Si/yGDug0rC+c1YeIiIiIiIjqKwY5yIjlIFcr/WsKcyu5wOikHdqMg1fFjEs7dPVWyoiIiIiIiOordlehuk3XXSUtCnvK9LVwQ7uQDvBoGIv9m08jRS2VEnpOGtkWVtGHUKbXiJQcdOpYdLGMKu5Sol+W5Ia+jz6GMcOHoG9IH/ToEACHmzGISs5R1q1Ilbqr5IjVDRxnkZtINGuOHs2cYXojAkfi9I7DviX6jh5ddKx9enRBa29zpMfEIlUO/qj0u6tkt8TgMU/i0aEDlOd0aw0v83TExKai6Cnq9RjUNMPANdddXy9k7IlAiUc1bug0Ygwee2goBvQV2+7VAQHOBbh0zhWjZk/CyHK2R0REREREVFlsyUFGyhQ+Q0ajkz2QdjQUZ9TSarFqhydfGIOONpk4eSAUx2JSkG/lhvYjJ2F0K3Wd+yAnLkHON+Lc2FMpkHj2xaR/jEZPbwukxB1D6I7DiEzKgbNvT4wR5xBooa6nz7I9nhTPaWORgrNHQnE4Mh5pDZ3h02MMXng8EIaeUmk2YttTJmFwoBtMr8ci8pDY/ul0WLQYjIljq7ltIiIiIiIiFYMcZBxcOmLM42OUadwkTH3jDTzZ0QEp4avx7faaaR3gENgeZvuXYdHyH/Dnjp34c9UyLJNyYogqesvOXe9/Rd3UTJ1xw+BRPeGWG4nVSz7BilV/Yue+zVj3zaf4ZGMsciz8MOABH3XdYj4h/YGdn8rnt27LTmxe9w0+/egHHL4OWPgPQP8qd4exQNdHhsHHIgexm8pu/6SDjzhiIiIiIiKi6mOQg4yDjRv8/P2UydcNNkhE6P8WYNnGaNy+Y0glXTuIDft0nV4UmUeOIFrqx9HIufZU1Fv1RHv7fJzZsQ7RpU4+MzwUZ6ThdX38yiYqjd+LNUdKjUGjjcXmXWeQL65oy6CygZFKse+G9k3Fv5fK2f5fx1CJzj5ERERERES3xSAHGYeYP/F///d/+L/3F+GbLdHIbOiGnuPHoL2N+ngNyE9OLMrrUSwNmdniHysHOCgF956FqdyKJDNVykAKuDV1g6n4r+XD/8a//116ehLtpSSsDU3EGiWlxZ83HGw4fxlJ4h8LuyqeYTNPOaCSEnfW8PZj4kvm7iAiIiIiIqoiBjnIuBTmIP7QaqyQupFY+KD/0JrL95CZWaoVQi3h5u8jzjEfl+Ok8XLFsrMUjMhHWlw0oqPKmS4klQk4pKWWDeHIcnKRp85WhbOTEhzJvFE7rx8RERERERkPBjnIKGUeUYZWtfAfgmF3khRUbRVRZzRsiZ5BDoA2GmfOKkVXU5U+KolHVmP1z+VMG4/JyUr1mZmXc+bujZVWKvmVCXVYwFyjzqoys7KUmfI+bewdUIMNboiIiIiIqB5jkIOMVAp2bj2GTFHpbtl/cIl8GYkpUvXeAQ5lklIAzj5N6lCQwwbtxw5DS3HAKWG7EFmolF5LSxf/N0UT3zvLodHIrYk6V5JzSx85yBF/8bxSkJCkBEjEBSxzCRs2RxMXdV6Vk56BfPFvE99ApaAUC7F9A7eCiIiIiIjojjHIQcYrZjt2xYjqtX0nPBRSXI1OvKq0YfDr2LVkCwKb9hjcoW5Uty082+PhF6dimK8FcmL+xA+7irua5Bw7hlitOJ12wzDYu3TmDVP49HsYPd3VRT0WrQaXXd+lJ4Z3EtdEG4tjx3QdXBKRIsVRHAPR1Vcp0fEc0BctS7XkwOkjOJkp9tyiLx72L9VmQ9yb0T30hr4lIiIiIiKqBhN7e/u31XmiusfWD12CPWCRFoU9EaXTV+Yj8YoZWnfwgrO7MzKORiBRalKQnAqrNu3h4doM3do1RyMHB3gH9cWQYR1RcDIShe6uwJVwHDqvDk2i7qNEWREb+HXpAA+LNETtEdtXSw2qcDtluQX1QYCjKaycmqBZyzZoE9gG7bsPwKD+A9CnYwBcrXKQeGgNvl13quQIMvmJiMn2QvsAN3i17YW2zT3g6uiAZu37oO/g4ejRXIOkQ4dw4aa6vntb9PF3QGJsIrx6D0EHPxc4OXojqMcADHugNZwa5iB6yw/YflkaRkaSiaQ8sX1/VzQJ7ILWXk6wdQ5Az0Ej0bdxNI4lusHNQf96pOHSTQ908PeAR5tu4ngawcnKDS1798fQge2hOX4YiZ4ecDB4D4mIiIiIiCqPLTnIuF3bid+lYUs1UhLSlkpZYTw2r1yNw5cykW/ricDOPdHJ3xwpW5bhm3BpqJTaxBQO3urQuGLyaWwD0/wUxIfvxA9LF2GFNJKMuqa+zPAf8Mn/NiMyKRM27n5o36MvOrVqApusSOz8/gdsUwZiKSHn9A9Y8dsxZNm3QKcenRDo7YD8q5HY/NUnWB1eci/S9r/dFI0UrSmcfdujZ7c2cM45idVf/4l4tduMvpyI1fjkq82IvpYPB89AdOrXE21cgDhxzT/ddk1di4iIiIiIqHoaeHl53VLniehuch+MV57tBBxagU+3sMVCEc/BmPp0J1icXoMFv51RC4mIiIiIiO4cW3IQ0X3lFugn50ZJuhKrFBAREREREVURgxxEdNcFjnwSPRuXToIKmHoPxuiODkBONA4VJTYlIiIiIiKqGnZXIbpX6nF3lfbj/o1hvkD+9XjEpih5T0zt3OQcIyjMxJk/VmBN5O2TsRIREREREVWELTmI6K47+dcahEYlIsfasziJqiOQGBWKNZ99wgAHERERERHVCLbkICIiIiIiIiKjwJYcRqxps9Zo7NlMXSIiIiIiIiIybgxyEBEREREREZFRYJCDiIiIiIiIiIwCgxxEREREREREZBQY5CAiIiIiIiIio8AgBxEREREREREZBQY5iIiIiIiIiMgoNPDy8rqlzpORkYaQ1ebmICn+glpCdZsNPM39YZYfjtgCtYjuMd4Dg0z8EWiqRWxuHLLUonrPrAtMXc1RGL8HhWrRPWHyMN4Y+BRwYCIWpGWqhXWclQn6NjPBlZNanFOLahPzZ5YjuKuVulQs4+BniPx6n7pUUlWeQ+VoEIxnu81BwOW5mHkpUi28R0z649kOk9DTyx3W5mL5xkEs2TATocqjRER0nzDIYcQY5Kh543vtwHAvIHZPP/FlSi2shJ5t1mNKWxt1qVjlt+ON8d2XY7ivBihIQOj6cVhyU32I7hHeA4Ps5uGLYb3h0ADIi1qBFw99X7VAR9Pl+Km3P3DxZ4zd+7laWEc5vI3A2aPgJio9hUnbEfreNGjVh+6qBkPxxpAZCHYU9yLmZ8zc/zni1YfqrCae+PGdB+BjJuZTwvDetLNYrzxSa+gCFvnXryAlufhO50auQsKWU+pSSaaDXkeTQAd1CWjo6glXRzMGOarA1WMpFoUEwky8y2L3Trt3gQ699xvyM5GckICbN8Lx3fHPcY9DLUREVEr97K6icYOrX3e0CB6AwI5iCu4LH29fWIu6C9HdkHY9ErExUeoUh7Q7rvEMRRsf9QVq4g7PRsqsMfB0noMPBq7Hd91eUkvuJm8MD1iO/w7fjA+aqkWVZrz3oDq6NA2UAxwSs8Zt0F6Zrd/at5MDHJKGjX1RXJW9mwIxvudUJcBx8We8W0GAw8PdHrNfC8HW5WOwf+VTxdPyR7F1QXvMbqOuWIYlZv/rAfG8IVjSUy2623r5KgEOibMbgtTZ2ij73DrEfjSnaCovwCHJ3/JhiXXjz+Wpj9CdSr4yGe/ujUJeAw18es3DGw5lf1C4GwL9xysBjusHseyXEfjnnucxkwEOIqJaoZ4FORrC3LUrWge1gYu9NUwKtNDmalEAU1g7N4dPYFc4qV9MiWpSZPxMzNwvvgDJ03eIyVEfqLTvsPlEKiC1u7oRjoMJSqkx8HHrCh8XG5iZqgV3lR8CA/zhaleViKbx3oPqCIvahlipRcstLZLPbmUzbUnoWpxPUWazTu6FOntXBQf8G8O9xOs6KxyrQz8vt1tHj6Edsfy9kRgR7AUbCxNoc7LVSQtYWMLG3Qvu9urKZbggqI2neN49/EXgjwgcTpX6hhUg8/RZbFFKiUo4d2kavjqZCTRwQnCvOeinBl7vpmBXd/nf+FPzsYNtoomIapX6FeTQNIW7py0aaFORcHo3Tp3YjaiTu3Hm2EEkSl2XG9rCvbk/GOeg2icTOyJHY+yP/TB2wzSszVeL6R7iPTBI+zlmrhPX5MfB+GfUdrWwnstbidh322H71HY48OWiu5+TQzMDz3SUKlyZiAydiw3lVbiaeGHK6NZoZCLWjN6F915dhZDnf1Wn1eg+4TtMmf831sep69cGN9MxRRxn9wmrMPD9RBxWi4lKEp/PEZ8j/IaYteuK8YH9leK7pj885SZamUi+biS5b4iIjEj9CnJo43Dp/HlcPncUqTf1+gvcysC1i3FKn2lLZ3ZbISKiOsIGo9oPgKuUE+XiRnyVUn6Fy6Of2vUj5xR+nXcR61OVcn2Hz2Viy2V1gaguubURSw9HQur4Yx30FJ69J60DiYioNmLi0SKucO/YFk5iLjVqGxKkXwPquPqQeFSX0FNO4HlFzXLu6w5r6ctNgRZpceJL/8FPEFbqVV5xAtGX8MG4x+GDTIRvGIEFeq8F/ee9e3U8Xug0CsEeTkpXi/xMxJ/6DstO/nybEQD6443hcxBsd/vEo7r9lVT2uMpjbfEwxgc9ji66zO+SnFRxnGvx1dnvEVmD734H26mY1m0AfB31up6Ie5CXm4mTu0djQVGFqvj8b8/QudrA0+FhPOI7AIHe7nCwUqOSYl9ZqVEIO/w5ll3X6xVt9wFWDO8Ka3WxQgYy49f2exDccg3e6CA+uW6G4/t107BBLS+h6BqkImzdaCwukTDVSbxn5uCRFoHwdCp5LUMPzMVXGQZqwuVd08okDW0QjEHNJ2F4S71uQ9LrJF8DM+n61Eji0bcR9Mko2B5ZhH1Hu6D9+N5oZAloE/bg6KLJyO2+Gp1GtoS1qPBnnfoJh5e9D/2GOQ29JsO1T380aeEJWzvzol8DtKkXcGnXasTu/Ekt0afs01VdKnIjDAfefK7cZKyurx1HkE8Gzn/WC7E3psPnqVHw9bSV91mYm4GU/d8icu2X5bcGMZ2KRY89DM8GmYj8awTeva6WGzB66jC83lG8VnJO4Zvnj2CZWl6hcSHYP6TMG8Cwi7vQfc5FdUExe/5TGOGVLq7xH5gSbokpz3bByGBP2JiZiPueiWunw/DfpfHYUuI16YUfV4aIz+BSMo5hySsRWKUuljbutZGYEmyP2E3f4YlNNnhnagj6ejlBI3ZV/r5UVuqxtZW640hPMEQ9j1J9snSJR6uTNLQmtlGuhhb4h3szhPh6w93ODhrd53PudcTFROC3qASsLfM51ATfjewJ78wIfPr3Kew2b4zXgtqhg5sjNNKL8+Y1RJ7ci3mJOSjbc88Eo5q0w8QAHzjZ6BKqlBV3aDWeKvXkAc4tMLF1S3GcFsp+JPk50OYkYXfoAczLVcvK1RXThnyALuJlnnZ0Jl48c1Atr2m6v2OV/1tARET3Tv1qyVGRhqbiz7IkG9rb/hGl2sbF7QN88PAcDPIXFUmICpPUUsdEA4dmD4svPPNQ0znyzBznYdFDk0TF1QlmUgVNyrFhKirfbV/Cm91fgqeyWrXl5SrnopvuREDT5fhi1FT0k66JqDwWbcPcCZ4dJuGpJuqKNUDa15IRDyNAyq2hXn95gqi4WjnBsURtWIubuselSVe7lK6jfrk8ZeBmmS/fT2HK0Eno2cobDpaaonXRUANrl0D0e3AxPmgaqK4r3MpElt425ZwaklLXVpky5V8B9dX2exAeG45kacYqEF08DCfcG9Q8UAlIpEZih34Fr8FQTOn/I6Z0D1YCHDnq8anXctCIH/HfgKFlgxmlrmnRPbwdzeN4c8hiPNslUAlwqPuTXye6AFANsnQZAP9xvdHINBf5hWL37r3h9eBStB/dEpaFuXLgwLr1KPiWyJY6AV7PPYfAzs1gb2eOwuxcaMUkP9+pGZqPmoUu4yeo6+pT1iua7ujviLjeXVejx8wJaO5pKzalPL+huS1c+05Gp3GG9qfw9OoKTyn/QGo4NlQQ4JCsuXBVabFo0RqPvu6EALn0NvJ0OTvUvB06RWX6U3njKtvDuZk9lrw3CuO6eMGmoVZZ18QGjdo8gH+/7gYPdU1FQcnt5t3ZeM223kHYsHAUBvk6QVOoHpduX294opO6XhErvWMz0+La5RjEXhbXqmi3BchMEGUxF5GQrhbVIWP8+mFCxyB4O9mJ65EjXp9ikk7O3BHeLfvgtT6tMaa8HBY2jmhh2xqfD+yLbh6O0Ig/dlrp/W7VCIFdhmK+i7JaMTO80WE4XuvgDyfrhshMjkPc5QRk6n1GaK9LZWLKVgtUYwIGYW6P9vB2sIBGCmxIxykmmIhlcRxO5cdL9BzE5gtK5MTBb1SN/+0nIqK6gS05VA0c2qNVc2c0yL+CmBOnDFSs6p761JJDJipesQc+xgcx25EmFh0cP8AHQ7rKIz/E738a02OKO5pXtyWHLDcB4XsXYmlSOLJgg0DvxZjZ0198xbvdL6qVb8lRUvnHVZq1wwdY9KBy7nmXNuKLfQsRqvvC3sAb/ZpMRZucaVhyVS2rjgaTMG/0eARotIgNnYl346TrocfEXxxzFGLLqacU3cNK/4I/HtM6u+PcqZ+xIyuueF8m/TGl97/Q00NUnrPC8dXv0wwkKazqtdepjffAG8+GfINBUmRNXMNJ4hqWbDUwHvMenSTuT+n3gQ1GdVkjKkDigdw47NgyDct0rTYaBGNU8ByMaSm1bbv9uVbuHgbihb5L0U+qzV4Px+odc7E2R9e1wgaezZZiUTfvGm3JIbeqyL2AiP+MQnLHjeg/1BP5eYBpVhgOzH8OphPC0KmtOdJ3z8LhNRvlZwJj4fZMfxQeWYmUE3uKW1CYDYXj07PRoY2tWIhH5FtDkSh90JRn4Fr0H96ski051IXceJz+chquRJ0RCy1h+8z/0KW92F/2cRyeOQGG6tfju4vPJF8pwelCTDqhO4fyaDB7/iiMkBKUSjIu4vCeY/j2j3QcNtS6oQxdCwvDLRoMUVpyqAvQ4lrYVkxbmiq3dusxLgTvD/ESRxWPnbP/xqzyusnoWpNUsiWHIhUnf/kbb63PxhWxNGhiCN7pLx1I2X2NmDwMs6Wf/m9G49cP92NRtPqAkxOWvDMMnaRNRm9F93mJSnkptb0lxyjPIIQUXsZPSddxQK9J0ADnDpjWw1+8+4CEo79izGX9D2m1JYc0K30fykvCgf178K90aR0zvNFpBIZ5mAHJh/DqgQs4Kq0nuLt2xupu4nV/6xoObN+Gf+leVw0sMLfjUAyQnpN6FPP2RmGb+pDMsgXWDWwPp1vXcXT3drwq76eYu6kZ3AvycLQy381s5+GLEb3hgASE/jYOS+440XdlsCUHEVFtxpYckgZOaNzUGdIPGTevxBlFgKPeuZWK8E0TMVMNcEjSrs/Hjhjll0dPTwO/RldHbhS2/Pk8FsgBDkkmIuNWIFyuI9rAx/NuJz2riDfGtNNVrtfh3T16lWvJLVGhvVRDAQ6JjTdc5TpTJpKvlgpwSArKD3BUzfdYfGghNugHOCQF27HkmLp/a5uy3QbuqXt5D+KwOkrph46mXTGmVD90a49u8JXujzYSYbF6GSUtXkU/KcAhvXZ3TS4OcEhuhWPt0bnYIdUOxeu5TcvxcnG1OE5CFynAcSsBO7ZP0wtwSDIRn6fXSqAGXdu7GMnS8CaFStMKU7NcXFz7HLLEBcvPVfZpauks/6v4CYlfP4dk/QCHJG8jrn+zR2k1AztYNJZnao4cjBmqBjgkZ5CxNgzXpFlLT9gabB7Wv2go46vXbxfgkGjx3py1WBWeqLTosPVCp6EjseTTR7Fhjh9eaCWvdJdocWXnn3heDXBI9q06hXNyBdQTPr3kohqSisP/+xPPqQEOyZZvT+GkvC8XeHSUi4p08pCCeeK1cvxYcYBDkpqKb8PVgXgbu2CcMlfnrI2PwKsJJQMckm0pR3FA7S5ia1XBX8i8BOzevVMNcMgFWHD+gvIacnHFQLlM0cdJfWNcjCgOcEhu5WCe7jlOrih1CwB7R7m7MPKvI+5G2T8YCfmVDHBIMs4hWd5RI7jcpfGbrR0GIkDqcpkVpSQ7JSKiWoVBjgaWsPNui0biu/6tzPOITynv9zaqzbIiV2DB9dK5AzKxIUH9BufgjRIt0qsp/vA0fFWikiY5iPArSpm1Q6Uagt8dpo+jvVwh0uLc6U9ukx+kBmQcRbz8tnFClyGr8GbToUrz+fshLQ41Fbuplnt8D7KubMM56R40EK/zZsFKocwbY/wDIbXyzjq/Dav1KgmeHq2VQNCNSPxtMFllJDZcVN4/Zq5tqt3su4uHtxJovHwQ3yuxhbsv+zhi/tijLqgS9uL8MXX+TuWdRsZdqtAkb5+sBGP0pd2AUt0zl3rDGRAARzm3TSauV7obhRZLPtqKkFd/xa9hF5Ep7cDEEo0CuuPpWY9izWsu6KGsWKO0p//GlK8yi4IOCi1ydP3DavDbSOaJvZiyW10ootuXBpoS9XkTaCrTDaIQMMaerGfTb/eCzkFU2G7MKd3SJ08rrqjQoGT+EluT8vKZ6LlVNoiBlAQkSJ9PZs0wql9nzHe0gL/ySBUkIEsOaIl7XakuLpVk8RLe6L4ciwaux4oHu8K6IBWR+1ZwWGMiolqongc5TGHdtCuaNjIV33+SERcdAy1bcdRN6q+0pWUVqrUpi5r9ZT+v0FClULyMdL+UWTaCXlaIe8uqkdpqJQ4xpStNd8U6LN62EfHSl0oLdwT2noFFY3fguyHf4A3vhxF4VwIeNvC0fhzj/T7APPGl84OiqTfKdBG/H+7DPdhwVgnyuTYbhaIwh6m4/nKyA/Fl/Ow6uUjHx0rqdiGkxZVItKovPvWi0jLGzgm+cknVBTgqv5ZnXT9ZtrXP3ZKXWyKhqCz3RvlJPPU0dHoOjkOXwn/yWgQWTWPhaqmuUNMK1RYD90pqNhYt3YWBz3yHKf/bi3NiWXxwwSN4CN55zb5Ujozqk/J5lAxwSNIx5ZXv5KFrnyivD0pVGKhDl68A++KU906jNi3wtPIyVTg5YWKw0oRGeykea+S5OqqhGSa4eOM/rbvhuw7F0yPut3tBa5FhKCiZeQpD/1iNPn+EYoFaJPnzqnqXPfwwVz/PjtRdpXkzyI3+khKwVS7Ukx+Hj0LPIlV6c9o0Q5/eD2HF8EewsVcH/MfFuhoBjxqk8UaArz88XWzE+WiRdjkS4el6Sa6JiKjWqL9BjgYa2Hj1go+LEuCIPXUCWXf0xYjqlNzMom4s90ROBmLV2fogK2shpv82Gkv+3o7IK6nIE19UzZy8EdxzKt58fA3edKnBkI+cvHI9Fj30EoZ36Sp/6fQpmqTEs/VTUQJSp2AMd5SLENhMTUp5NRybK5VzoRRTjVIpqU/BX7Ox8Jgehn5vTUaHwb3h5d8MbkWTJ2xr8pfhWuLw7hhMfHUtlp1UmoPYBLfH01bybL2wflWE0qXONggvLHoUG97rhR/fG4Jdi9R8HOnHsGxp6ZaCdccor57YNuwR/KN7N3Tz84Z3k+LJ3b5mX9AJyadwNEPMmDXBgEGPYmM3KZjSBxsffEjJx6G9jD/D44pyeOg7kHoMD//5O1YeiUBcapb4nmYGGyd/dOs+HCsG98T8+/2avDETk1b1w6SfF2JDVCYcvHtjfP+aT2xORETVVz+DHFKAo2kPeLuY4pY2kQEOI+ZpprbxzslU+9KXZNbQYBvwKnPUyFVC5OVeu3e/Vpd2SxqtQuIOz0oN01pTUhGaOB/v7hyNp1aPxoItGxErtYQ2cUJgyEsYpaxUTd54tvtLCJR+bb0eiQ1/PY8XxZfOsUXTz7UjuHQ/7kHOdzgmNwawgY/Pw+LfrhjczF0qQHz0dyj9e2OaVqqJCBW0OvK0c5O7uiAtsdpdbrK0ys/BGivlmEoLMK/Z92JV2Y6fhlZe5pCSgEZ9/zZ2vN4O26fqpkU4X6v638fhunwbbeCoy7dZZQX4JjQGShs1e7jr93oycuOeCoKPCZB5OQbXcjVo1MQXPk1coMlLRWzYVrz1RgRWVSVIWBvYt8cr7ZtA0yAPCZHbsGCj1PqiePr0TM2+oDu4BUHKzatNiUNceiFsXKVgijtsCm8gNfYAPtoSigW6LkqG3MrB/+JP4am9G9Bnw6/49NBZJEgNNc2boE8HfwxQ1roNd1hbSP9qoa1oX1WUlb8R3x9ajUjpNeEYiK5qozgiIqo96l+QQ87BoQY4bl5B7KmTDHAYrUAM91IqVGmXtpap5Ekc7PuoczqBGN/9YegGO7gjDR5HcFMpyKFFzOWSXQPuqYyTiJe/kNsgwO/x+9SyIRXhKQsxc9NGJbgkNfMtp7Kfd0ttCy0NwavMVWAoAtRcF5GHJuP761ElW+iYaJRKebm00I1GaWUmjxtwd9yXe1CcgNTauw+G241SgkGlE46qIq8mKoE4l65iXbmolK54pLny/sm6tAth8lzVnUuTU2gazO8hjUQjjZhz/01Ao2ZKG/tre9/GxUNrUahfSTIzV4cary1246r6BnBxHKrMVIet2nIHmcgs+5IRdH8sNbAwmoqdGwa3ld4oF7Fv/l4Mf3GV3H1Gnp7/E08sTcSWuhrgEMY0dlfuafIxLDh/DX+W6r9lXpkcGpVmgbF+3mJ/WTgZcQBP7f6tOKCy6S88fCIOayvTV0znVgFWJxzDmLCz4pNbMJSw1BALHzjIJ30N8Xetu+A1ZShdOMH1nv6YQERElVG/ghxygEPJwXFLfIO7cO4UbjLAYaScMKjlv9FL6lieG4W90QeVYlVMmpog1P9hjFe+1YvXRzDGdPkAw+WhKO5UIIYHj0GgVJu9fhCb1QSk98fP2HBKSRhp3XIS3m8zvmReDGn40qaLMaWmkldYPYzhtv4om8TeBoFNAyH3nLiVgHi14UBpYdcSlFYPHgMwxTv49gEBueuEBi7OvYvXlc7JdzlWPPrwbQIlexBzTQmquAb/G89a3K3WA/f4HqiKEpBaBWJQh0D5+pROOFrk+mock7O02iA4ZCnGW+klI5DfC3PQUzo+8f7ZcWa7Ul4NkRdPIVk6DjuxbT/dvROvkcaLlaF2tbrWL/eTeG2olTCrJv1RPFBNS2h6fYkO706GT62q0GTiYJL6OvPqc9tm8yOGuOHpABOD+TYC2nrh24dbKxXihBisMTicayquyJVGS7QZ1r5k/oo6S5ec0gk+wyxrPBfJ/abVJfm0aYQQvQiwv2VjfNz9IfzD/7afuHdAXEv5BWQNn8Z3lkejg60jJmhMUDbUaYIJbmqgJvN6pVrqFSVVTo1GWJmkPHdBPc9uR0RUGzXw8vKqP72t7doi0L8y6SezkBCxH6nqD8x1VdNmraHNzUFS/AW1xPj0bLMeU9rquqSkIj7hmqgoaeDg4Q0H6QfZglSEbZ6IxWpQo4hmBv47eihcpYqneAfkZYubba6BmYmYvxSOeIdg+NiWHf9+fK8dGO6lzOfdSEDytUzkmdrAxd0d1lKNKCcKGzY8X2r0iN6Y8sAcdNGrHJlZiq9s0r5zi1sWAOK56yZjtboETMK8hx8vkfDRzEoNwOSI5+l+EbuxB0v+nl/ql3apRcriEgGbvJvKQen2HbunH2Zekouqp+ly/NRb/Tqrfz7q9ZQqjsmH/oN/RpVXUe6KKQM/UCrUknyxjaLrdw1h28dhSVGAxAajuqwRlWT1vNT9FV3PnExkNbSBtUZcy1XiPihrlWQ1B/99qL9y7yUVXss6cg/0BLdcgzc66Gqf4vW/bjQWl/dLtOYlfDDicfjoEgSq51R0Pct5/3QJWIUprdWxSyWiZmMmvf4LxPP1cgDHhA3G3KJskzbo1+ZbvCD/ai5I9068V82kfUvvmz2p6DewK6wv/oyxez9X1qmytxH0ySi43gjDgTefU1qsDFyL/sObiYu+Fts/eltey3r8XnTrbIusQ4tw4PuVcplm9Hb07qMOKStORvq1tqG5OUylikxhBrKybWFtnYHzn/VC7FllNVmf1eg9VO+V0tAcGvW6arOLL0rWkcU4+stP6hLg+tpxBPkAyRvaIaJMNkb1PGBgfzqm4rPscfFZhkxE/jUC715Xyw2YPf8pjJA/vwrkRKBFzCwh6peKjLP49aOwkkOp6vF4qDt+HO2nVDpLb+fifoTML5lAVbfPzPA/MPCjSg4B81gX7BqoftBKTKRAhHSAJfeXEr4Joz8vfm2Oe20kpgTbl7Mveyz5dCQ62YqXwCb9RKcmmP3OoxihH9wWr2Nt0QdZNlIuXsSR3afwze4CA8lTxUfdM8sR3NUKGQc/Q+TX+9TSO1MT2zDI0h/rBnSAk/R+viVdvzxxymbiLatcz8zMHNjYWCPzzF8Yek6/60oTfDeyJ7xxA0f//guvVjJuP8Z/EF5ppSYFkuj2KdMiMy0BJ6PP4NvrOeIvXrExAQ/ilZbqH0nxvUWXxFtjYaF8Ft3KQtSBvzDpatEfzHJ0xbQhH6CL+JhJOzoTL54p+QNHzemPN4bPQbA45LvxOU5ERNXD+DMZB+l7j4UTPOXkk95wuJWK+NPrsORXUcErHeCQaBdi7oZ1iJUiWeILlFRxNctJwLn98zFlz5+4Xk7ob8PxFQg9HYc0UVk1s3VX9tfUHZqbCYg9ugLvri0d4JBoYCVtX2+Sv7RJpECA/mNqsUJ8sdd/TExFLPTLbQx00YjE9/tH493texB7NVMJBKjr52WI8wz7BN8Z/KW2CrIuIl7ahzS6iv755GuRdvEgNqx/ooIAh+Qglmybi7UnxHWVtmGqtw0rW1jprpUsE2sPzcTqo2JduZ+2sh5yxf0W13/B7x/jnDx0YAVuzsesP75H+MVU5Em/8lV4LevIPdATfjGyuAvPlQNYXVFTe+3nmLluPjborr16TtBmIjlqHZatMRAgFMw0tkXnIk+6Jg9SdyG98qKKsywTO04+h68O6d07E2U/S34X7xu94Mj9pF3zCvZtPoN0KTJiZg6NpTka5mUg/dRGHHhrDC6UN0axOB9p3aJJFzgSSpbrvYZqQv7nCL0gfejYILDt1ApbMsVGncWV9GxR6SwQlUfL4klU5DNTYnB441pMfKX8AIfkyu/7Mevb/TiXkg5tgUnJ7ViUuOFVJwVd9LerREuFkvuzq5H9FWDnwbO4JtedpQq5uD7izVq8Hyd4BLTHiH+MwfLJ1U58cu9lR2HG3wcQJSXylK6fpQU0poXITI3Cth1rMel0BVGxKtgdr+bQkEjBCinAYS72Ke3X0g5O7i3kkVM+b++ODupqkms3LiNBfAhpteJGFK1vId6QUi6PQ1i5ZUMlAhyAtfMYtZte2RacRERUf9Svlhz1TH1qyZF1Yj4mnax+k3oiojqnqHWSFuf+Ho25iZX82Z2A4BbY8FoXNIIWsZvW4olVJaPUHu72mPLqEPR11wB50Vg1aT+WqI/p1OqWHPdSg8ZYMbgv/MWlklqGTDp3A0pnKlVDC7zWqg9GNZdaelzDgc3b8K8aDW72x7QH56CL2Hzy4Zn457m7GeRgSw4iotqMLTmIiIjqspvzsfqENMSpBgE9FxfnGaLbGt3HD3LHq5Rj+LpUgENyJSEds3bFKIkvzTTgQBoVaOwrBziQdwF/lg5wSApz8NG5aCiD8ZqpuVBqitQd7mU5wCHlxVobdbdbcRzEVbVHVE2P0kZERNXHIAcREVEdFxo5Fxsuiqq4uT+G9/8A/Up086LbsndDTz91Xp+VDd4P8YUcN0q4iC1yIVXIzBn+BqNBZnglwA9yVp6bCThagw2OApouxrNSvp9bCQjdNRM77nob5Uycva6cgGfrOXy/ERHVMuyuYsTYXYWIqB5pMBRvDJmBYEfpx/TvMf3ACmUIZyqfnxd+/FcIfCykhQJo0xNxRZd13NYJHo72Sm6ZnBis/89evGcgX4muq0n+9StISS5uDZIbuQoJW06pSyWZDnodTQKLx6Rq6OoJV0ezOt5dxQ4f9x6EDg7SBRPXMjMNCbqcPho7uDs5QiPl7ym8jqO7tuDVckbculOujh9g3pCucEAqIrfNxbtXDQ0YfxeYvoQPHlITN+enIv7SNeTdDMd3xz83OGQ9ERHdOyb29vZKmnkyOvaOLigoyEdWRs0mFqtNvFzHoWtjDfKSduOP5Bi1lIioPopC6MVstHJtjovH52Ob/sgnZFhqOtaEXkDjxhZwtrGErZ0THBwdlcm8IQoyE3E6bA8+XXgW3ySpzynFNHgE3JuYoaGlLWycHYomkxsRuHrMcLIGsz5Pw7+dS9G61pZKElVt/KFyn1P75WLTxQswyWkAVwtbWNnYoZG9AxzsxGSlQUH2dVy+EI6vD4bj4xrMxZGVq4GvSyvkHJmLd5LuYXih8DC2nc+Gl01zuNqK102jRnCwyMSJc9vAFB1ERPcXW3IYsfrQkoOIiIiIiIhIhzk5iIiIiIiIiMgoMMhBREREREREREaBQQ4iIiIiIiIiMgoMclCdJOUbaezZTF0iIiIiIiIiYpCDiIiIiIiIiIwER1cxYsY8ugpHjiGi+siukZc6d2/cuHZRnSMiIiKqG9iSg4iIiIiIiIiMAoMcRERERERERGQUGOQgIiIiIiIiIqPAIAcRERERERERGQUGOYiI6L5o6DQUpnae6hKVYDUQ7v/3KRq3tVILiKi2sWhhCWsndaFWsYflpE/RckJfdZmIqH7h6CpGjKOrEFFtZT1uL7p1tRVzubj8yyic3RuvPHDfvY2gT0bBVV0qciMMB958Dlnq4l1l1heN5/0Dvo5AXvRGhH+4CoXqQ/dvdJWmGPdDH/hIs3G78d7sS8CDHTBtfCtYiKLYzT9g1UrpwftJ7xj1ZRzHihdPIkldrNXG98HsB5sWX+NayR6DvxiOjrbpOPL5BmzeqxbXKyYIfPcRPNRMAxQkYtfH2xF6VH2oJuleD0LsX+I99j3g8+9HMK61pSi5hM3P7caRm/LDJbV4GS2n9oBDQ/Ee3vc/nFq5U32AiKh+qH8tOUxtYe/WHj5BD6B1xwEIFFPrtt3h3cQbFqbqOkS1SEBbF7w/Zwi2Lh+H/SufUqdx2LV8JDa81wJPq+vdd2298OWCYeLLXhDGqUVURZZN8Hm3QdjWuzXGqEXGZSxcWkgBDok5HH36q/N3wyi4PrMRXf6zHT4t1KIKxeN61AUk6qakXLX8XvGH3bSJSoAjZiOO6wU47q885OYpc/l56kyGFjnKHMoepFQRfhKzf3gS48arRWVIQQlpneEY3EstqpZMxF2IxXnddDVTLSeqaY3RRgpwSEzc4N1ama1xWVrkyzNa5KoR1uwcrTIj5BsKcEjOfoYzXxxDhpi16zERPkP8lXIionqi3gU5rD26oomnM6xNC5GXq4VWK76ZmVnDprE/mgd1hZO5uiJRLTD62RB8+foQ9A1wgY2F+JqTk61OgMbCHo2auMFDXfe+a+OLNu5O0Jipy1R1Dt4IdHU04mv5Ey7vvQDp4xfZ8bh86G42AWiHxu09YWte2Q/3L3F56ShE6qZD97aFidmYl9HSV9z4zFM4tXiVWsGpDbKRqUY0Mm9kKzO1znWEvhmK1brp8HW1nKimXcHewynK+zPjNI7crYYSVzOhhOrE+++qPFN5Jz7E2fVXxDGawW3Yc3BwUcuJiOqBehfkKMiMQ2zkTkSG70TUyd2Iivgbp44fRbL0V6ShLdy9vMEGHVQr9AzCi329oIEW18L+xJQXVyHk+V/VaRW6T1iF6UvDwEaoVBflbx2FPa+1w/aZQ3H5rFpY37n8A979XMQf5pu4tPpjZKsNJmqto5lIk2fScS1WniGqN+I/2oz/PPkD3nvxKM5eVgvvgaSrN5SZjFQkKnPlyv/zS0THiQ8SMw/4PTuOifiIqN6od593OalRyMop9dtYfiquxl9BgTRvZw825qDaYFx3P9hIM0lH8PbSVBwu0yy1APvCsrFPXSKiuswKtuN6wlnM5cfsRMKh8tqh3y9a5KgtOfJ1zeVvyn81iehuSdd1V8lDTro8Y6BrWEWikLbqkByMNPXti8YdlVIiImPHxKM6Gl/4BjUXXzOTEXvkxL1JLneXMfFo3Tb7nacwwlfMJO3HlBnROKwUVyy4NTa81hGNkI2Tq37Fc5vU8hLsseTTkehkC2SG/4GBH+m+OSkCuvvi348FwcfRHhoTtbBAC21eJk6s/hNTtqtlwuz54hgrmQcxdtN3eGKVuqBn0EA/PPlgEAKc5ZCO2Fc2MhNO4Y/vTmHJaaVIoR53+l6M/kqL96eGIMBeHGDGWfz6URh+9GiBJeM6wsNKVMcSjmDZO2exqobqie7mjfFaYBDauDWCja6pV+51xEUfx7cXkrCt9KeoTWtsfCAINpkR+PTvU1itFuuMCXgQr7S0A66Eos9h5SfANzqNwbBK9j2KO7QaTyWoC9Xg+tpxBPlk4PxnvRB7Yzq8xo6Cr5ctTKXwd14Grh1bi5PfLyrbZaLFl+j2chdYx67F9o/eRkP/9+H/WG94NLaVI+f5qRdwfu0sXD5xRllfZT1+L7p11uXiKJa8oR0itqoLpZXY10+wHPo+gvo2g60ajc5OOo6zX8/CtQS9biUD16L/8Gbqwm2o51Au3bZuk3hUd27yuewdC7dJk9GiefG1TI/8Eye+f1+8j5T1y3CcCL/3B8IZNxH35fMQL2GDpMSjpi0ew9RxbeUgaGb411i0rtTnoGkAHpn6FILESwypB7Hskw0Gf/F16P0MXnigGSy0V3Hot8+w8WzZzjHFiUeBdu89iWHexQkQixN9GkpAqUtOqb9+aRU9XxzfyFYY/EAAvF1s1BaWBchJu4Ijmw9h1x+V6DKjS9pYicSjFiFu6Nq9FVr4O8PZQs21ID73slJjcXjDcYRuK86DUCOsLOEzvg36d/BBY9vi/eUUmsDCTHyulZd41MkG7Z7pgK5BHnCW1hPXJD/jOs4eDMWfX2eW371JPK/j5J7o5e0Ia4uiD3Y5YJV2ageWLzLctce0R1P0fygIge6O0D0tP0dcewtLcU/KTzyqe1478TxT+TCVa7n356M4sq8mgmPq6ys9FO99qcVDr/VBoIPYUcY5/P7hIUR6BmDi+A7wFH8Psq4cxa9vnUO8/t8DKxN4Dg5A+x6+aOFip1xzSV46ki6cxqZV5xEfrRTp070HSrpNAtZebfDyS+3gIN/TK2j8TGc8FOJTdP+yrp7DtuVHEXlKWb0k3XvkEv58cjeOS0V38LpWWMH2tU8R2MIM+Wd/x+GPflHLK+AyEi/9azT8LG8iadcXWPzL8fJfW0REtRBbrulY2ELKVY3sbH6QU61w+IpaLWncEdOfsqxc7o3wszgiV34t0aaLp+Hn9PdDW7memYoTO0sGOHqMC8GXL/VCgLM9NNDl/xCTWNJYOMG5sbqiKrcoR4iY8nRfXAuKy0o8rj6sZ9zUYXjnqe5if5bITIhBbMxFXMvVwKZJR4ybNQxL+qgr6rN3wTsvPIAAG7EfaZe2LdBviC/en9gFHuZaUWYCjXsXjH5M/dJaTd1cO2PFoL7o1qQRbBrmQZudA620Y3NHeAf2xdwHOuO1GsidodWK7Urb1m1fckuco65Mf6qJOkIRWzj0+BJdZk6Av48tGublQivl2jSzRaPOE9Bz6tvl/6Fw8oT9wLXoOXkomjS2RWF2LvILRQXHqRlaTPoUTUoFwApzb4jjF9tXpzv6QdK8FXxmr0SPwc1ga1b8fMvG7dD+taVo5KCsJpPyLRnYT2FucVnRdLNmE4ua+XyJDu/MQqB/yWtp334sur9c/rVs2K+93IoD1yKRUk6AQyf/7Fr8cVzpqW8T/BgeaaHfydIU/iNHKQEO7SX8/Z3hAAfQFSP7NoOFdEAWLujcq6tSXIHjs3/Ae0/qBywuYZXUXP/Jmh5hQ4PAdx7Cy2M6oLkU4MjLRo74DMkX720Lh6boOeYRTH3HA9bq2tXXFI883x89pcCBqMlL+5L3Z6KBtUsAQp55COPGq4GImuDnjGELH8G4kAA5wCEFDeT9ifMuqmwb4tcUYxY+hGEdmsI57zpipeSqV8TrwNYZgQMewj/fa2r4mojnjVv8EAa3cIa1BYrOL0d8JptaWMK5kRpgLsX5H/3wz1f6oGMTR1jILXmk5xXIz6moW6/1+J7q8+yQm3pJTgIbn2EiX8vBr4jzrslrKf4eDHu5HwJtCyAOTVyLAPQc6oPRz3SGp/h7IL1mrD06Y8CYUtf1kZ6Y+GgHtPMQ59aw+NxgZo/GLbph4pw+aOenrqtHd6+U6Q4DXxZuGPzxI5g0oDmcG4rjFdvIh3RdWuGhf/VEYBN1vRJ07zE1wCH5frf8Pnyv0iMG3UTG0Vj5u61pi3awq8Tfq55jRsJP/lJshcYhI1EjeYGJiO4htuSQmNjD1b8zXKzzkRq1Fwk3jCPMwZYcdZyVPZYsGIlO9sqiNvUs9m2KwNebsnFOKTKo08QHsKS/p5iLx5bZf+OtUn2Fn/7XKLzQRnypTdiLKW/EFLcQsfLEt0seQICZFrFb/8D077JxRX1I5qRBD/FFd1+qulzauBDsHyJqtRnHsOSVCBhotFFCp7G9sGior/han4rD//sTU3arD4gvfU+/PgQvtHUC8qKxasp+LJF/gStugSIFaOTnoD22/iMINnnSl81ErH9/F7b0EeffV5x/9FZ0n3e7Hsu3YemPdQM6wKkBkHl+JxafKm614W/dDPN7d4a79H39SihePXwZRSMIVqElRwnuPbG7s/jGW87za4rSkkNdyE3B+bWLELt/o1jwhGbwUnQf2kxUZnJx8esuiDqmrCbTta5QF5F1BseWTFNaU5hNgM+c6WjuIF6zJ77EnhVL1ZVKE+u9K9YTl6FSLTnUxYwTK3Fs5SIlaOb+PoKmD4Wr+NJ+bftzOPZHmLJSCbohYdUWK3ea/+MOW3IoMnDxp/cQpbuWQ79E98Ge4lrG4/RbQ3FFSWRRgt3r36O1qFRlHfofIlaUn2mneAhZR/R+7p94oImobt44gVWf/IIo8aeruJVHJiJWLcJvBlpnKFrj8TeeQCsrZSn//Ab838qDyoIe/ZYcd6bqLTmcXxmM53tIIZ/rOL56B/4sarVhgsbP98GTIR5ypTv2r9/EdiuI+FX6F29nhMy1x+WNsTh/WG97TjboOedBhDQWb/Kbp7HquaOofuoRDboufgz9pYBx2mms+fQozur9gm/xj36Y1s/DQEsOe/T/dDi6ivdVjnhsmXis6LXY2gfjRCXZR7wPUvb9huWflmzlEvjOY3jITyOeF4qv5scirUQLN1HJFi/vrAulruODHTB1fCvxvtMiftdf+GG5XisRJ0cMe28o2hkaQlbXakG+P7+L+1McCHCY0AfPDm4q7l0KQhdtxq5qDbla/PqSXidHlm/EZrTD1OfbwFz8PTAVd/vP+btxtq9yPfOjt+M/b+n9PRjZCg+5XUXohhSk6P2hM+0RgCef7wxPcS2zIjbikw8qSl5bcUukIkXXRJF2ajtWfZSo3Ae9exe/4yd8+78KXs/VMg4+XwyFG/KQ8OMziNulFpcjaNLneDpY/XDIO4XfXluAUGWJiKhOqJ8tOUyd0ahpG7hLk293tGzbGS6WWbh6bp/RBDjICNxMx5Q31mJLjNLaQuPUAn3HPYpvvx6JH1/zwmgnubiMw7+cxTm51YQnOo6Qf4rR44Z+LZRf7WKP6wU4JG2c4CH/wpOJKydLBTgkqRUEOO6YJZ7oJgU4ROU07G+9AIekAN98uB8npS+AZn7o8bBSqk97OgzvS88pUL8QmmlwZfdevBctzl/+OU/QVP/XwlcCguQAB5IPYV5kyW4pUVkX8OrBs+KrvODREmPrcjKf3AuI/GiCGuCQxEO7eSVi5PttjkZtJsilBqUdx+HFY4q7i+StxMUjyrzGq53SQq6GZBxahLAVaoBDkjALF08rLTHsm/SW/73/MnD+yzFqgEMiruXGjbgi1zs9Yd9GLiylByxdlbmM+MqmEr6OPV9vQoz0ArRri5EPB8DUNAAjh6vdWI6vxR/lBjgkouKyLhSX03KQmXgCGzeUDXDUFJ8Bj2DaCkNTN1FBLM0NIZ3lNi2i0rdNL8AhKUDS8h347ZTUikUDn07NiyqO1ZOCXfPOlwxwSFIzEfr7OSWYYGUjqtU1YEAbdJNbxF3B9o9KBjgkcmsCQx5thY7Syeadx+b5egEOyalY/LZL+cR2DmqOkg3ubODmrHwWZiYmlQpwSArKBjhggq4PSAEOUdE/tQPf6gc4JKmFJZf1BA5sJd+T/OjQEgEOSdrKUITKh+mMwH41cjVlWafCsFmqtIu/B9JHg6n4exC/KxTHxd8D3fU0NZP/uBX74zR+X14ywCHJ33cO2+TXF2BtZ7iFS3WkHd2Az/5PDXBIxL3bF6W8xhs3vZvDnxxTR2cxg6Xb7ce7jVj5BXbGXEX2jTgcXf0VAxxEVOfUzyBHQ1vYubrBSZqcrGEiXYWGlrBr7Aub6teLiGrOzUy89dYfGP3GH9hy7qrSTcHEHj7BIXh90Uj8+JRN2S4pN+Ox46zyJa1RC1+MkOcUHqN9ESB918uLxuF1SlmRsHjEyl+8nNDjpYH4cqw9Oqk/5NS4Nl5oIQdpruLszpK/OipSEaP+7OrhXfqLXzz2fXe1ZBAm5xS2fFtO5aDKGqGN1ERAiIu7gAPyXEkJ1y9B+X7aCO7lBJ3qguTtk5Gon9NCthbXYjLkOWuX8vJbpOD0kglIT1EXVVK3FZn4bK2xPzI3whD5fdmhZvNzlYqUqbmuFcX9lX1kOWJPlr6WN5CnBmZMDUZ9fGApdS/BTWTHyQWVk38Qq349IQ8xaRM0ChMnKt1U8i9vw4rfzpVbEdXJP7sJKz76Pyz6/BeE11gA0wAzS1hYGJoM/MF90APe8tvuEo6tKllJ1ok9eglyDlQXN5RJj1DTdqWKT6ma4xzkprRKuhyDgwZyPpSnRVBTuYtIflwsIssEKqSPwKvKSDe2LvAp0e0hE+cvKX8PnLs+iEkzm8Lztn0fG8NHXicTZ/aWenNXyA0tvaV7qsX5Y2XC5EIBzl9RWkY4eDrDQp6rris48G2pY8w5jV1fV/3vQbx6jDUu4yR+X1Syi6gkW+32UiYQU6NOQau8DGBiVYnQYN5xrF/0OubMnosfDtTkO4CI6N6on0EObQxijmxDpDz9jVMRh3A5ORca+6bwDuwKJw6vQrXMlYR0vDV/E0KeWYX31hxBbIb4AicFOwYOw6JxZSsK32w9i2vSjFMLjOwvF8meCFSaumvPnsWiMl+UU/HWl/txRao9WLihzdCRWPLFOOxaEoIlE50wqCYDHvYadRQjS7R4rBd+fKfs1NFJ+eKnsS5dKyxARukeHnlaKNXxmmQJG3nXN3Ct3I1fQ4La9aCRrVxLrZsKS1fKVbpkFjbOcqubsm4g31AdaOsobJ/aDtsr6N5hrArvKNFI9eWf/QUrQqVKiA2aeNmIN/cl/L16lzq0a+0gdVeRcwiUmXaX7f7RyEap/ErDYxqozMt26YbOtINbDSYLsOjkjHbPt8FD7/bEmKKpNWry93VPF0f537TkO6tIW5ip70DnVnrHpjcN94RSRbaGQ6nmMbH/3Y7tl6VorCUaB/XBxIVP4l8rhmLcdB/4GPpRv5cTGskz15F4m24NJZnBXK2nN+5m4BjF1F+JYEFKvFozbTkKkGPg74Gh0HkZViZwftADPad3LnmcnZR7VPMKbht4JCKimlE/gxwlFOKWNh3pl/Yj7qr489PQFm7ubpBaqBPVPgVY//spPDFjLbZcloIAGvj0bIFxyoPFihKQ2qBNTzUBqZUXOvlJX5RTcXir4Z9trxyJxujnV+HDNUdwMiFVSeJpL57Xfxje+XQYvhxquKpbdTZo5OsLHwOTh31N7+tuENdHl8/uVk23JKlFbmYo3XKoFjKFixKNU+RnILO84ICxcDJRK/SFyNd1XaoOKRHokrGY9tpgDAtph8BmPmheNDkX5YOpDUwdPPSOrZLHeTMTB9/4Df/5dDtCI64gJU9KHuoInw49Me7fY/H8zJo+Rw0cmhg6RjG51HwXkKqwHt4Bz38hzn18P4R0CKiVx0hERFXHIEeRQmSlKxW/BhaW6hcoolrqZjbeOqkmUbN1MtCvvQDLwtS20N5eeMIK6PSYn7Jeagx2hsuPlKMAa34/hefe+FNpObJqv9pyxAltRnfEFHWtaimqmFzElhe/Q/cJFUxzqpr4sLry1NwPlrAtN7GEAxqpvSSuZRhos9CgZkZ4uV9MzZVAU372nTRZpzt3Bbk3pH+tYHmH/S9suj+Lx9vJWTiQkpIvNtEaI58JqaFcFfdBllb5tdvCpvxzCLJXWxqkI7HaqURM0PWFwWjnJN6raefw5/9+wX9u19qkGnLkJMnivtkZ/lCxtjL87SNfjaFmHd+gd2yGpvITYObvS8SuD3Zg+dM/4T//2YxdF6SuEyZwDuqHIaOUdWTp6j0Qn30OQfJMSeIYLQweZoH4T5KJI8sNHZveVOmRQe6CJj549IlWcJZu+dnd+PbNn0oe218Ghu6t81pDo8ZuCm7WpnZeRER3B4Mceiysla9Ut25m8VdLqvU6WagV6JxMpWtKKVfWnC1O3vmYJUa3kUZcEeXhZ7FenquMAqzfFI0n3g9TcmCYuSCgp/xAWYXqt3AzDW6bHSEsEbFyp3o3BDx8rwMBLug66UMsWPotFi2ch0eCygtppiBOvrBm8Pdugg5yWUnuLs3gL9VVbl3GSUPf2K3t0KJUszB329Z4IuA2XVt0rUJMKnEtSzH1GYspC8W5Lf0f3n55AKqcKsRsMlybK52Kkk/+JP9bVyk9SDQwq7U/0IYhW+29YOvZV5mpDKcQjHlAytWQj8S/l+PTb7dBauBl2mQAJj0SIOdwqIhpiyGY9Nq/Mf2lxxBcW3LKHEpUKr9mTdFxvOHPhhbdmitdWuIuIlIuqQ4PNJebumXj+IZDOL5DV8FXFbUaqRlJyXI0C6aNnUslCBVC2mBiiJu6UNL5OCXHhXWzpmWfVwX5x1MQ+uZf2C5fbA0aN9PrPBJxA9fkAK8zPNvJJXo0aDenHwINJtRIQqy8PRs01w0LVhv19YL81zDnNDbOu4T4UolXTSsaxrfO8ofyFTcPGRdKZbs1xCUET878L+a/8yYe73Y3E6ISEd0dDHJIGmhg5doB3tJYkIUZSExKVh8gul9MMG6EC0b7Gv6y1Wlga7zdUwlaaKNjsEyeKy0Vf5xUWid5dHoAnaRvxnnR2PdLyS90Rdo64YUuGgSoi/oG9Ve7vCAdCeW1Ajl5VQm2WLTGo687GdxOsavYESkdmwY+A4fgy4csy6zfqaML3p/TumZajugLGIEHg12UCqClN3oOG1lOIKEAX8ZcUEdP6YK5zR3RQS9g4W/fAp93bCbOAMg8E4EF+oNxZ4lKgrzcBN387eAuF6rP6RkEp9t98l6/Ju6eYNkCj7R0FF9PK6/XqAfhI/9IbAbb1qMxMlguvjNmQ9HoubHwktqwp4Xh4u5ycnbUCWFqYlRzeI38soJWOffTTWReUJL7WbfopOaruQ3TADzyzAA0ES/A/Ms7sXrXdeBGKL7dckGupNu0ewITe1eUW6A1Hnm4J5o4WMDGrS2GDu+qlt9nl2NxIFp614nPhgF9ETJY/zPQBD7/7I9hcre76zi4sSZ+cde1PrCEWzO9KJiVCTyf6YaXP+6pVIhrSNruGCWIY9sKQ54v3p/DyA54+fl2cMgrFWRR5Ww6i/NS4MG2HZ5c0Lxs8lAnDTyfaIPBE0pH8izh+aANrA0FsVo3RXO1PC1JPyFmIo5dUH7q8enVGc395FmxDxv0XPgQhnlLLVLUshIKcPxQrJwU1qFDf4x73h4WpXI5mTZzRLvp7dDxfr7cdKNyWbjAu5MyK/OwR8d3h+NfA0pfXCPQORBOUrQuLxY39IcDL4ff4NHo0MQelo380HXMs+hZk5E+IqJ7oIGXl5f+V3PjpmmKpgG+JTN6NzSFxkytcRRm4WrUISRnGvqKUfc0bdYa2twcJMVfUEuMhzGfm8IeSz4diU5y7bsAWjX7uszMsigPhDYpDMveOotV5fXBb+KLNe/1Kh6BJfpvjJ4XX3JkEp1xIdg/RElMirxsZSQXSdH+tLgWugnDl5XNDq8zZe4YjJMrIEKBFtq84oBK7NZfMfEXdUFiZYP33xqGvlJwUaZ3nkX7jMH6CXvxnlyouyYXRdkupaxnELa+0B42Gcew5JUIrJLKdOdxcZfhri4Bz+Ltf4YUBzau/IW33/up3MSlYwIG4ZWWamWxME+87sQ5mZhBo94E7eVQzDl6uczoK/8IHI4JzdWe7tocaG+J55iL5xReR2ScFoG+jcW+Q9HncOmseYpX2j2CMbokfbr9quKO/45J5cRi+772LUY0VxdE5Tnim5fwTYmxgou5vnYcQWpfp/wbKUhNuoFCczvYuzvDUtp19gVEfDgKyaV7q7T4Et1e7gJriMenisfV4oqNRZOZ0+Cr1wfB1NJcjrQX5uYivyhhZwxOzRxT3DpJt68bYThgIJGp9fi96NZZ3M3Ytdj+0dtqaSm9ViPksZZFLRvys3OLcqoiZi32LHtfXRD6rEbvob7qgtDQXNw3ZVarGzVGyDqyGEd/KW7hojuOrEOLcKDMKDAT4PPudDS3A5I3tEPEVrVYn+M/4Pd+XziLexb35fNIOKKWl2LXSHqPOqL3c//EA03EGUmJRj9fjj1FaXZM4f/odIwLkiq7mYhYtQi/GRxKtismvDkcvrqLcnET3llRdqDIG9eq2l3MHoO/GI6O0q356wes+l4tLqEpxv3QBz5Ix5HP9bpZWInnLhTP1b1WxOeRNBKoqfhcMJXfdtk4/9cGrC41RCnGdMa0QU3VBcFEAwv5V/kC5Oh9hqYf3YIVn6pDTQgt3nkMo3WfW7p9WYh9Scs56cgysYe12SX8+eRuHJdXqh7P6UMxsYP6mSLtD+px5sTiz7Xp6PlEOzjE7cZ7s0sGcaQ8EhOfUIZolanHKgWELNSWfWmHf8dnHxWfW/E1FsRnco7uM7no2ojdXj2EH149V7L7iJ943hzxPPkjSLl+yjUpQMrhv3DEZTgGe5e6bzINmv97AMa01gXYCpAvniu/AqVRduRdXsfB/27E9mp1NdK9vvTuS682ePklce0yjmOFrjvM+D6Y/aB4TehfTys3jP6sP1qo56YcX/E1zMnIhKmtDUzL3AMPPLSiG4o+XmFSNEJQfk52cXAq/SRWTjuHoo9NQ8elp/H04ZjUwb7kMdYoK9i+9ikCxQnnn/0dhz/S/0NsmO3IeXh7kK7vXB6iV/8Dn+9RF4mI6oB61pLDVO5jrtGfTAqhzUhBcuxRRB3bbzQBDqrrMnHu3EVcy8iW6sfQiC+XRVNhNjITTmHnd7/iiRkVBDgkl2NwpKiOkomToeUEOCRJiYhNSRf7E1+CpSCD/v4uH8P6z3+tMMAhWTJvLZbtPiuOW1QoxJfoEsdd+pegm5mY9cav+HDjMcSmS0EVE3Vd8aXx5lXEhu/Ckjd0AY4adG49/gq/qnwhzY5D6Po1FY7MsvrcFszbfQhRqTeghRk0lhbyuWjTLuPA/t/xkoEAh+R/p7Zh9ZkEyB8pGuk5hci8cgyrt27BSykGfwYt4dPj6/G/41FIzRTrNlT3q5uU7+IG7V37F2LloQXykHFqDf4oJ8ChTxoRxNTOGa7+zeDm5Qyz7BQk7l+JPW8aCHBUmQam1ubi+Isn3R+ghub65RpRdahhe8cgdMV2XE7KkIMpUnClaH9WpdpNSH8X9B/Xe7hkuS44V0Our0LSWel1YYWmQyZW+MfZYdBTSoBDvIov/71KL8AhyUfUurVSjwPBBkGPPoveBruiHMQfOy8gR4r25FzFob3VTm5Rc26mY/OM37Bql6h4S58lUuVYfDaYIhspl49izX9+LxvgkKjrFU1F3Q6kymhxubmuq5/q7IINWHPwkpyQU7cN5FxH7MHt+GzGHpyRu9bVnPhFm8W56e2vYba496FYMSMUxytIl5C14Sg++7+N2HU2BVnq57RynlqkXDmNXd//huUlAhySTMRdltYXlXApsKG7Dg0LkJN2CUc2/I7/lg5wSKIvYdV/duD41UzxilIr82L90NW/i32kF1foy9DivDjGz1YeQOTVdOSIz3UpOCLt0zTvOuIjDmD1fzZXM8BRTTcTxWtoO0IvX0d+0fGJWy6d36+/4b/fnxdXzRATWOuunzwVfwbozlGerO7CZ1h1uIxDYzmicxOXNt0+wCHJ+GMJ/rp4+79TRES1Vf1qyVHPsCUHSV/K3lkwDoOk/hJJ+zF9RjT2KQ8QFbXkKLd1Ad1b3i+j5awecEAeEn58BXG7ykYwlZYc907VW3IQ0f3nAbvX/w+t/cyQd/oXHPnkd7X89iyHzcP8B6XWHHHYNmcu/mK+UiKqQ+pZSw6i+qXT2O7oKyeEyMTJ7QxwENVqcZ8hZl86CmEG90dmw475/oioGkyHvAx/PzMgNxZRqyof4IBlJzzSXemukn9mN7YywEFEdQyDHERGatCIjnh7sC+kBrXa03vx1ialnIhqr9yVH+NMTB5g7oOW016HeeluXkREldH2dbR42AdmUsuw397DDSW3cYWCHnsDL838EAsWTEEHByA/aRu+Wbatgu5JRES1E4McREZk9EsDsWv5o9i1Yhzeeaw1GpkA2pi9+L9Prpafi4OIapEo3Fj8LWKuiz/Qju3RZvJj/ENNRHfGYyKaTWoPW+QhZctnBru+GdLYqzX8PByQdz0aR9ctwNvvfofTTM1BRHUQvzsRGRFzi+Ikn9r0izi8cS2eeysGWyr3/YaIaoO8nUhavAqXrqbj8vY/i0eCISKqjCv7cPVCOlJ3fIvo3w6phbe3bdFETP/nPzDnrXfxw7ZTkHNYExHVQUw8asSYeJSIyLgw8SgRERFRxRjkMGIMchAREREREVF9wu4qRERERERERGQUGOQgIiIiIiIiIqPAIAcRERERERERGQUGOYiIiIiIiIjIKDDIQURERERERERGgUEOIiIiIiIiIjIKDHIQERERERERkVFgkIOIiIiIiIiIjAKDHERERERERERkFBjkICIyVmat4fDGcvgM8VcLDJDWef3TitchIiIiIqojGOQgItXbCPrkOPqXnt79EtbqGlQzrMfvla9tt/ET1JK7wR9202agpa8VXEOGwlwtLa1hr8fg62cPt4dnM9BBRERERHUegxzmvvANHoDAjtLUHU4atZzovpoAn3eVIEPQQLWoDF1QYi98WqhF1RKP61EXkKibknLV8rtg4NqiIEqXsaPUQj1eS9FFfbz/9PfVwprQBfaj16LTu2FoVe51NQZWMH/mVbT0NUPh9WM4PvcTlHc3C3e8g4h1sciDGdwefhWN21qpjxARERER1T31O8jRwBpOPs1hxVAPkfAlLi8dhUjddCheLb+7bFv0R+nYoqZHK9iq83BwrsGWJC3h2L4Z7O3MYaqWGKWQGWjT1V58wF9F9OIPkZunlpcjf9N7OHnoppizh+/4l2FuppQTEREREdU19bp6r3FpAzcboOBaMm6oZUR09zW0VDpP5EuVb6f28CjREuU5eLd1BrJyka2W0B0wGwrPEf6Q4hQpWz5D6lWluGI3kbtyFeKkD0K79vAb30MpJiIiIiKqY+pvkMPcF56etmigTcalS4nIV4uJ6O6ztLOT/02NvyD+bwuPHs/Jy7L2veFiDWSdOo4MtYgqz+yRgfC0ETM3juHSb1FKYWXk7UTCn1GQ4k62XR+Gk6NSTERERERUlzTw8vK6pc7XH1I3lYDucLfJR2rUXiTccIJ7x7ZwQhYSIvYjVauuV8c1bdYa2twcJMkVSeNizOemkHJyTEdzOyB5QztEbFWLS5BycoyCKzJw/rNeiD2rFuu4T4fX6KFo4uMMS7X7QWFuBlKOrsXZNYugvU0XBjlvxvBmorIchgNvPifeHeVr6DUZrn36o0kLT9jamRdFT7WpF3Bp12rE7vxJLVFIiTe7dbZF8sa1wFBxDlnHETZ7ghzUcHz5ODq0kM5pG2xfFo/lncHR18fguvJUhdlQ2A6fiBadW8Je7ctS7rm1+BLdXu5SuS4v5Z1rVa+l5Vi4jh4Dn7bNYKvL/JmXCy3MoRHbyTq0CAe+X6k+oOMJTfdZ8O/XHq6NbUtcy7gtX+Li/o1qiSED4f7hRHjbACmb/oXodVfU8soS+/y/19GskbgUez/Eqe+PqeUVcBmJl/41Gn6WN5G06wss/uU4g8ZEREREdN/Uy5Ycum4q+VdPIfkGv46T8THtsxo9Zk6Av7+olJuISnW2mHLFG97cFq7dJ6D3O6vRyFldudomwOu55xDYWcl1USjtS0z5heK95tQMzUfNQpfyRhEp/BJJseJf65Zway/+NZsFt2bi39RjuKIL2php5K4XRcwmwGf2++jStyXsNRm4JiVJvZiCfDP13OZ8CWv9JxSq569O4rDU4pLl8pRV/LhOla+lz2K0f2cWgsR1kQIc+eo+Cs2UAIdhvdHo5dXoPbY33BrbAuox6q6l/9j30ePlWeXnE+ncWf5sQ14Ukv680wCH5BhSTyj9W+zaDih3RBZ9PceMhJ+lNGeFxiEj0UsuJSIiIiK6P+pfkEOvm8rl+GQUqMVERsNrKdqPbgmp3plxYiX2/KsL9swU07/aYcfS7bgmDbNh3RJtnnq7hj4AtMi5EIaIFZOxY2o77JL2JaZd/5qFoyeVDie2ncfCzUGelVm76NKKxiP5yBnki+q0W8fJQPf2cDUD0k9uFFs1pAsavTwZzZ3EbFoYDszqhWNSktRF/bFn9lLEpolyhy7o9Nx0eW1Z1GQcVY9pz8yliFET8KRs1ZXpTR9MLpkHpKrX0mwy/J/vj0ZScCN+O/bNLL4uO6aOQdgJwx1xNKPfRvsW0rXJwMWfZmGHur9dr43Bvp3xcgsJyxZj0WpgF3n90sxaeSqBiSuxyLhdS51y5B8Tz5Vm7Dxh21QuqtCNbL0d5Wnl7i5ERERERPdL/QpyFI2mko/UuFPIYoSD6gDngWHo/YGhaSgMNSBwHN4b9tJMwnYcXVGyK0Vh1DQcW31crsib+vSGh6dSXj0/IfHr55B8Yk/JVhB5G3H9mz1IlhfsYNFYntGTgYyL4p/9x5AsjlHj3xvN27aEKeJxZbvUJSNDSUwqqu0NdS0fvCageTOpGp+CqBXPIUu/Rp39Jc6vVc+tRS85WFJdVb2WDQcPhZfUPybrOI59NA3ZJSInZ6TGJQZMR/Puyh29tn0Wokp0SzmD7LXP4dgJ5Ymu3SaUGZFGYukuHy0yEu8gF0dpZ2ORKZ+nA6ylVjW3EbHyC+yMuYrsG3E4uvorhKrlRERERET3Q70KchR1U0k+iUR2U6E6oqG5OTSWhqeyb+DJcPZS5pKPLDKcG+FIGK7KlW5nOLaWS+6evNPIuN3QRXnvI1FKrWLZEj7+4t/440iUWmRAVJzl47SDhVrZ1nRWh5ZNOY1EKUBS2rELSJdnPGHfVp6phqpfS8fmSsQj+8w2pOsHYirSsR2c5cDMBVz5a49cVFI80o+dUVq4OHtCr2GMqgcsGylzWQn7lJkquYoc+ZzM0EDuhnIbecexftHrmDN7Ln44UKmhXIiIiIiI7pr6E+Qo6qaSiMvxKah/2VaprpISj26famhaq7aS0OcMC7liKrWSiJdLylqLDLUuat24nFwZVdDQ6Tk4Dl0K/8lrEVg0jYVrmYryUGikvBF6rh88XtQ95dqptWXyYuiYWapZIixbldqPbuoCa7X1h4XUpaVaqnotJ8BWbWKTkVA6qWgFnGyV1hk3Ukq2UNF3Ih5y/AcusCox7C4REREREUnqTZDD2lXqpgLcaugEj9Z94N9Gf2oNZbREa7i20JW1gJVcRmRsPIu6fxQW1sBQQmZj4TE9DP3emowOg3vDy78Z3IomT9iW6TbiDNPSfS2O7EGiNKRJ3hlc2hymlFXE2llvH7fb391Uw9fydqzNYaLOlhsJIiIiIiKqx+pPS44G6j+idqUxLz2Z6h6GiUZXZl5URlR36PJY2MLSRS4woAus1b4OWVdKDu1aFbbjp6GVlzmQG4+o79/Gjtf1W5sswvnbdVeRfYmo2WL918fgWplWDMXnUqir2F/cqLcPw5PhYXfvRFWvZQry1XiHud1QZaYET5haGsioka1VusRY2hnMtyFr7qx018FVZJRJu3EMueo4u9buPZSZKnFRW7Dk4VaJXCJERERERLVfvQlyZF3chsgj5U0nkKqshYSI4jLph2WiumUPrqt9WFw7lzN6Sq/e8JArsRdwtdpZIiegkZwIFLi2921cPLQWhfpBCjO9lgd6KtcaQVv0uKna5SX77AWlW4t7S7iWTUpRCcXbNLE0PEJJsapey43IuqbM2XuV3YfpwKVo30btdqPvpJpPxKwlmhgcPcUTjl1bKgGQ2ONQd6HnJrKTb8pztm5ScpMqauoJS7l1ShoyTsglFXMJwZMz/4v577yJx7uVGw0iIiIiIron6k9LDqJ6IQyJ+6QhWaURP4ai/djJxSOTCA3bLkWHkdIIJkDGwbXyqCbVUxw0sGrSX96uQlTGe32JDu9Oho+dWlSkGazksqu4WeEgID/hppKAotiRbbgklZk1Q+DUlXD0aqmU65h1gWXnxWgxVm8I2RJ+QnqSMteo1yy4uVc0vEzVr+V1eVhcwWcAWnTtLZdJ18Ry1Eb0HN4MyDUwvEraUsSdVUdPGfg+vDrqBzpawnbsSrRtIQVHMnB+49tKcSm50cows/D2h53esd6Jhp39laSm12KRobYMqYjf4NHo0MQelo380HXMs+hZxf0SEREREdWEBl5eXszBCVe4d2wLJ7klx36kqk3N67qmzVpDm5uDpHhp6ArjYsznppgAn3eno7mdknjUcNeLtxH0ySjx6hWV3s96IfasWgxPWI9fjW6dlY4N0nilWqnu3NAcGrUBgfbCWuz/5G2lQqzTZzV6D/VVFwT99bOLK+VZRxbj6C/F3Vw0o7ejdx8102ae2JfYqDQijKkUQi3MQFa2Layt9Y9Rd9wXEDF1lIHkqcVcXzuOIB9xDTYORcRmNfmnz2K0f7k/GukaQ6j7lJjqRpwR57ddnJ9BXkvRabo6NKxQmJuLfF2LkrQwHP5gsjwsrKKK1xK9xbEvEseurCTvQ3qOmZhPDUPYAWd0G9oMWYcW4cD3eslJzcR9nyPuu9pKRXdsRdcTuUjcMB2RW/fIj5c1FJ6Lx6GpFZCy6V+IXndFLa+s9nD9v9fRrBFwY++HOPX9MbW8fLYj5+HtQd7qUh6iV/8Dn5d3eEREREREdxlbchAZnXhkfT8Ge77ejstJGaLyrQw3K1XKtakXEPXL2wgtUykXpFw06tC0uvV1SpaXzBihXfMK9m0+g3Spf5eZsk7DvAykn9qIA2+NwYUaGFXU2qW/OifETsOxt95HxKELyMjORaG6T+l4s5Mu4Pwfi7Djs3ICHJKLk3H4o59wPjYD2jwlgFB0btalh+Wt4rXEHiQvfRvHjqUgW92HaWEGkvevROh7zyFLF1QpLW8lYufPQthOcT1v5Ip7ouzPtCAXGbF7cHTRhAoCHJKNSD6qDKLr3OtpqL18Kq/zULhLw9DmxeLyn7cPcEgy/liCvy5Wu0kQEREREVGNYEsOI8aWHET1kNlD8P7wMbibA2k7PsSZ1ZULVgA90Pj9l+HreKfPAyyHzcP8B6XWHHHYNmcu/irdzYiIiIiI6B5hSw4iImOS9zsu/RELqW2FQ7/n0LhtZQbDtoL5M0/C2xEovH4MMb9VPsABy054pLvSXSX/zG5sZYCDiIiIiO4jBjmIiIxM4fb3cPJgOgphD99Js2F3m0FPTIfMRpuu9uIPwlVc+OJD5Fai90nQY2/gpZkfYsGCKejgAOQnbcM3y7YZ6LpDRERERHTvMMhBRGR0biL3649xJiYPMPdBy1enorxBTxp2fB0tHvYRj6fj0srPkBKnPnAbjb1aw8/DAXnXo3F03QK8/e53OM3UHERERER0nzEnhxFjTg6ies6sM5xefxp24R8jdlM54/Wa9YXzrMdgvedjxO2ocExfIiIiIqJaj0EOI8YgBxEREREREdUn7K5CREREREREREaBQQ4iIiIiIiIiMgoMchARERERERGRUWCQg4iIiIiIiIiMAoMcVCddunCKSUeJiIiIiIioBAY5iIiIiIiIiMgoMMhBREREREREREaBQQ4iIiIiIiIiMgoMchARERERERGRUWCQg4iIiIiIiIiMAoMcRERERERERGQUGnh5ed1S58nING3WGtrcHKMfanV8rx0Y7iVm8rVIu3IQG8LmYoNWeYyIiIiIiIjqD7bkoDovOSkKsTFxSIMGDl69MX7Ecow3VR8kIiIiIiKieqPeteSw9hoAHxd1wZCs84g6EwNjaAhQX1pyFGkQjBdCFqOfh7iNJ+Zj0snt6gNERERERERUH9Tblhy38rTQ5hqYtPkoVNehOuZWOJadiUSemLV2745ApZSIiIiIiIjqiXob5LgeuxtRJw1MFy4hX12H6qCbmUorHHMbOMgFREREREREVF8wJwcRERERERERGQUGOYiIiIiIiIjIKDDIQURERERERERGod4GOZz8ByCwozK1DOoDH19/2Jgz5lPnaTORJf1rqoGjXEBERERERET1Rb2r1d8qKDWaSl4hTDQaWDt5w7tNX/i4WKtrUp2UcxJXpSiHVSB6NeX4KkRERERERPVJAy8vr1vqfP3V0Bo2nu3h5WqJBsjHtTM7kSg3B6jbmjZrDW1uDpLiL6gl9YO1wzwsGtwbDiZAXmoc4tO1iD/7PJakqisQERERERGRUWL/DElhFjIvHULCDWnBFE5OznIx1U1Z6VsRFpWKPDFv5uQtd0XyZAMdIiIiIiIio8cgRxEtsm5ky3MNGvCy1F3eGN9zDga1dELWmRVY/PMIjF3VDzMvqQ8TERERERGR0WJtXo+pmZn8761bhfK/VAeZPo4uXhpAG4nNR79HWH6m+gAREREREREZOwY5dEzc4NDIVJ69kcHkDXWWVSPIPVNyMpEsFxAREREREVF9wSCH0MDcDe4BbeBoCtzKPI/kNLbkICIiIiIiIqpr6lmQwxmubfrAX39qNwCt27SBkxWgvR6F8+dioFXXJiIiIiIiIqK6o54FORrCxFwDjd5kJiUcTY3D5VO7EXUhDrkcUJeIiIiIiIioTqpnQY4UJB77G5FHthVNp47vRmxMFNKz2X6DiIiIiIiIqC6rZ0GOQtwqYL4No6bRQCP9W6BFnlxARERERERE9QUTj5IRCcSzrQIhDQScl3QSYUohERERERER1RMNvLy8mIXCSDVt1hra3BwkxV9QS4zTIP/leMBZAwcPbziYi4KCOGxZ+zS+Yg8kIiIiIiKieoUtOajOc23sDx9fbziYaJF2cQ9W/z6ZAQ4iIiIiIqJ6iC05jFh9aclBREREREREJGFLDiIiIiIiIiIyCgxyEBEREREREZFRYJCDiIiIiIiIiIwCgxxUJ0n5Rhp7NlOXiIiIiIiIiBjkICIiIiIiIiIjwSAHERERERERERkFBjmIiIiIiIiIyCgwyEFERERERERERoFBDiIiIiIiIiIyCgxyEBEREREREZFRYJCDiGoHE38EmnvDWl2k+4D3oKwG3giw8IeDukhkHGwQ6L0cK3q9hAC1pCwnDGq7Bl8EDq3WZ4KD7VTMG7ge343ZgZ/G7cCKNv3VR4iIiO6OBl5eXrfUeTIyTZu1hjY3B0nxF9QS42HM53a/9GyzHlPa2iDrxHxMOrldLa2Ml/DBuMfhoy4VuXEQSzbMRKi6WCG7efhiWG84NADyolbgxUPfI0t9iO4R3oOyTMVr+yHx2jYX80nbsWD7fIQrj9yh/nhj+BwE22UifMMILLihFtchrq8dR1CZN3kGzn/WC7Fn1UWqvoFr0X94MyB2LbZ/9LZaWPMCmi7Hm739YXYrFWF/jsZiQ69J2zn4Ymh/OJgAaccXYnrkxjv+TLB2+ACLHuwqf64gKwHxyZlIvvg5FsRX7Z1ERERUGfW6JUcDc1c4NemM5kEPoHXHAQiUp+5w0qgrEFEliC+uMVGI1U1XM9XyyuvSNFD5EiyYNW6D9sqsEeiK8cHf4ItH1mCanVp0N1m9hDf7rsF3g+ahp1pUWcZ7D6qhcbAS4JDnvRCozt53UkX4k+Po/+6X5f7Cbj1+r7LOazVTUc6+eAGJUbopBdlqeY1r8SW6ScctppDJs9RCPWaz0OpD5fGKzr8qGnZcisDZe8V+715woTaQAg/TeikBjvC/JhoOcEgy5mP65oNIuwU4tJuKN8VnxJ0JxrOdlQBH2omFmPT7OEzf/zwDHEREdNfVzyBHA1s4NuuDVm3awr2xPSw0QEGuFlp5ygWbthDdiXVYIr64ztRNZxLU8soLi9qG2Jti5pYWyWe3Vq71R53QAW1aecNBfMiYqSV3VaNgBHo4wUxz55Fa470H1XBlHcJSlNmsM7uxQ5mtlzLWjELkUt20Bxlq+d1k6tMejUq/cbq3h6uuzM65RoMclq3aw62xLUzvyZv1PmkwHm/0VwIPyQfnYkFaxUHprLSZWLwvDnnQwKfrDDx7Rx8t3eDpIv0bh7AqtAIhIiKqqvoX5GhgDaeArvBwFH+pb17B5dO7EXnkb5w9uRtR8nQU17XqukR0b2g/x8x1/TD2x8H4Z9SddJWhGsN7UNatjVi8RVyTVf0w6ej3iFeL6S6yMZcDgvl54n9mLeHR11MuVnSBW7eWMEUusu9aUxJjZoPhwWMQILVOurIRSy9EKsW3cS5uIXZcEl+MNN7o1+Ul6N+RCtl5Q45x3EjEWf56RERE91C9C3JoXNrC3UZ8d02Pwrkzp5B+kxENIiKiWsHJFlJjgdz4C/Iv/67Bk4u/qDiMgptUw449jiQpCEJ3xupVDGohvgAhE+FHF+KcUloJkfjqyB4k3wLMvIbiWUe1mIiIqJaqX4lHGzjDrW17NDLNwJUTB3HdyL8kMfFoHWf3AVYM7wrriz9j7N7V6Ok7D2PaBsJVbZ+dlxqFHXum4ausUs2Ndc8rJ/GnLsEo5O1+rpaWSjx6Gni2wyT09HKHtfSrX4EWaXEb8dXBTxB2u0+MpsvxU2//2yce1R2nulik1HGVy6Q/xrd6Cr0CpO4galmulNRuG1Yf/QShBWpZTRD7kq9HU3E9dPsS8m5qkXXhc7x4Yp1aIujOvzIMnKuD1eN4pNkAtPfxhqutqO5JeTLENc+7HoeTESuwNH5PiWbf43vtwHAvdeE2Yvf0w8xL6oKktt8Dq3n44uHecIAWkVsG412160hJuqSeQNrRmXjxzEG1XGFtMR4vBA9FoHTvTNXCnFTEn1qLr85+j8gyr+fqJdJ1sH0JL7QbgDZSt6Gi/WkBc+le1lDiUV1yyhthOPDmcwa7AUg5Obp1tjWcwNJyLNzGToBXK0/YqjlHCnMzkHF+DyJXzqpEK4m3EfTJKLhWJvGo5SjY9xuKJu1bwUkKYKhdQaT9pZz4E9Gr30e2/t9i9dyyDq1FYotRaG4Xj8i3hiIxDdCM3o7efZyRvGERMvpMF4+l4Ox/+uNyqSY2Df3fhtfwAfD2soWpFCEpzEXW1RjE/vIWEqPOKCvJJsDnXWk76mKFyjnXql5Ls6GwHT4RLTr4wtbOXAnkiOPU5plDI22nvMSj7tPhNVpcTx9nWOpfy6NrcXbNIvF8pcyQQcHr8Wwr8dkfvw7Td31yhy2TbDCm2xqMaqZB3oXv8eKBFbfvfnKbv0VERER3S/1qyWHlCgfpS2f6Fdz4//buAz6Kau0f+C9tk5BKSCOBVBIgCYRepCooilgAryAq6OXaUa7wXttrlwuoL/pXUFQuV0Euil7FgigoIk06oQZIIAVID+khyabwP2dmNtlsNpQkQLL7+34+A7NndzOzM7Ozc555zjm8C0RtRftoPDv0Czw5OBq+7dSKdaWoPDp4ReCm25e1fIeWTjdi/h0v4qYIUSm0E8uS2U52OniG3YlZN19+h5aNOl+CUvlZDFOVVn4JXDxF5feuFzGup1a5FpVI5W/Yu8I34k5xId+CQxTqRKX3Tm17iMpH7fpWiH3QTmwX947aCzXV2vPaVMuwjsZThWkm2Sg8csNjuKlnBHzdRWWiTHtdjdzfweg94nUsiKk/nKP8G3V/TyuUQRFDmdGkNw06tPZ9cG41juTIGR0iu0w33/9C+1sRqXwH8pBwqn6AIzJgEd4fPx0DQsW+s9HWT24jJy8E9pmOl8YtwqQGfQyI7WS8TQzb9KJcMSDsMyy87W70DvKCg2F55eIp2fGT1qnrNRezCH1eex7RvdRKub5MVKzFZ7R1dINH1Fhc99oGdIq55AYJF+UycTb6jRmg9nUhK/FGy/PtPxnXvbgELmb7wEhCznHZ80cg/IcOEP+Ph3+MtziwjyH9D+UFgiPE4VaP/Y2rMWTGeISHuKEmR+0o9WyRI1z8uiF6xnL0uHGY9kpJj6pSbZ3kZLguMKxnvakIVeJ7WE9Tt6X3bES8OA8DRnaDh7t4Y4W6jCrxeZQARyPsh6/Cdc9NRUSEN5zttPUybMvBUzHstVXoIDaReXdjYLDcWHokJC5tQtOrEqxKSYTcRA6hAzG+tRzPREREZlhVkEPn4gE78X91RbWoMHRFcPfh6NZbG1Wl90iEd+kKV511xX2oDXCLFpUmHUqTv8PCr67H/d+Nwf3/fQ9x+eI5Gy8M6D3z0ttIXwKXyIEIcSxByvY5ePQrsSyxvEd/VnvYR/thmBAarL6wuYrn4Cn5WbTpo/hLHJVF9xheGjVMGdYQeXFY9e1tmPyt9ndWTcSb69fiSHFLNUNzxaQ+dyojbFSe+g5vfKltfzl9I/tqmIjndq3SXqtJn1H3mu++Q4pSWIK43wxlRtPupcqzdfTIOb0Ta35+GI+uNFrWV7OwKkHdPp497sYkQ4aAsGq30d/blagWFu/ER4Yyo+nldPXpWq1+H8Th2xOpylxjFavxEdFq8CNtM1bJjlMN2r2IGSPEc+I9BceW4g3tWJb77dEf1yJNBi/Ed2tcgz4GluJlo21Su00vwsX7dTwyKBgOYh+m7RLfnVXa+78Vx8mq98T20F54LTnMRvepw9BeHM9VaRvw53Ox2PLcAGx5JhYb5i/HqQLxGkdvdJ30qvmAUhPU5CXh5A+LsEksa+MzYlnK8sZiy5fH1EwAzwGIGCODGCoXP6UXB0Xp5v1KB6cdYibDNmgU/L3EeiftwtnGblJ0XYI+48KgQwWy18zAlrlqR6n7XxHLW5ukBBF8x72KTrWZT1/izHxtncS0b7+2k06trS2rm8bijPGh0ORtOQwBf5uKIE8xW3AA++aPrd0um54W8782En4IWoReE7vBWcwWH1wulqOtl1jexkUbcFYezy7dEHP/q+Yv7NxiENhOzmQgJeMSv+emMo8gTf4O2AQj0k8tIiIiao2sqkbv4Kheatj5RiE8tDNcHCpQkpuJvOxclFbbwsmjM4Kjh8LfjYEOal0KDr+H2duN0v+rv8OiA0eUu2oIiMb1LXlXTQ4r+Ms0PJe8AfI6XSrIn4ONyWqlNTCwfibB1XZT9Fh1WM+infh43SysLje+YBfrnvs23kndoj1urt4IlJ0UC6W5O8w0bchDij5Pm28JW/DvA89hRX5i7bZXnI/D6r2/qXdfbTrAR6msXDtXcx+kpWxBgjz0bCLQO8QkwGYzXQkAmrs7PT5mGHzl9yJ9Ld7ZV79ZSkHx23h5U5xSyXYIGoYJRk2QmiYYk6J7K9+L0mNL8fKJuu+OoroY+gbHTgtwH4A+83dhmJmpTy837UV1dLePRYDcb6UHsP/dWfWbUmQsQOJCUVmW8+LvBg1VSputbO1UpGxYgqp6zTbSoN8+Cymn1EdOnt3UGSOlWcuBUxuQKb9eHbshdGR3uKEC6TsXiIJcVGkxNLvaLJBAdLhxgHgNUJW4God+NT7+xPLWzcNx5QDxRqfhU5XS5mjytuz1EEKU5K80HF04FfkZxkdtGmoqZLSiofbjhsFDzmRswL6l9Zul1CTOwv5VB5Rhfe1DhiHAXNTb0x8yrtK8TkB3IE1pMiYz2HorJY1zxfUhagCyNG0Hm6oQEdFVZV21ea0ieP5cJlIP/474gztx5vRhZJzej5SDm5GSUyW2iA4dOodDXrsQtQrFO7Hq4Hf1K01CaUYisuWMTUcENqzPNFnpkaV4M9+04l6CNRna0LCeweilzl0DhpRrIDt+MTZeiYpjPVtwOFPLoOj9Ot7v/RiuN82Pv1rOH0Z2c/tyaBFXeR+cX4qtJ9V9ENjlfkQrc6pAUaGLlDGO0iPYmm4caLkbMQFqcCrl5GKzHSzKoJUyZC7E96cueaCJxiIyQP5fgoSkry7eV0EL0jk7mp8aNAEZAO8ItS1DafxvKDSXDZH7JbK1r7lHSPMDAReWhuKsi6W3rEbmYVmrDkRIX7HupceQuVeWr4Ve2d1uaFfbWmwyfLWOVLL3z1Nn6tmFwjPq8lw69WrmxU/Tt6VzVJiSjYFTB5Buto8Zc2bAW8s+yd67AGZble3dhRwl0OKN9lFKST1DPLQNVZDajIBDHPK1YI6LzkudMREdOB/zB3+G9+/4EY/EiPNEXhxWHzHqs4iIiOgqsMqUhbKzySipMG1cW4XSMwkolLPOvnIUO6LWQVQizSb+n9ermRzQwaUl7+zXmL+TWFqjrYWTK3zVuWugg/ZZS5CWqzZjuNLW739LHT7RRgff7nfjkbt/xJcTvsGCmJm4SWyLK8FTNxbjg1/ES4M/ERUGw3Q/QpudcdASrsE+OB6nBvl8emNM7bEejDFBamZHwfFVWK/MGdStY36hcfDD2FqkKbfaxZ/1aGb/IXKoTCWInoE002jklSQ7Hp0Ziw1mph27TQMI3aDTUrCULAmzdqEwXQsE+IQp/7cI52FwGzoPQQ+uRvSMuikiwky2iXv9Mv2GA2pGhFCWuEVpvmKeG+y1wI7bwPrLMUxhIWrgCy5uaqChyZq+Ld381M9XmnVU+f/SeMNJWeFiFJ9qpDkLVqNY6b9GLM/vSgeoGufZPhohocFqB9n6PKSk7FAzsYiIiK4iqwpynK9R7384OzZyeVNTiDLlzp7zBTv/Impd9CiVnRteLRUlDbJKLNr5Lfh4yxg8+uNSbDuaigIZA5IdV/a8E3+d8CM+6n03ItVXNp/NMDwybB0+uusfmDRkFKJDI0SFwTAFw1Oro1md2g5IvRDd9U6lCE73o5eSlp+BIyn1Oxy9NB3gIPsUESrPsxZmYO+gHWSm9wGaJBDOt6/FsPmLMOAvYxHRKwz+EXVTB6X9RH0Opr+9BV8iU6nX5+LMhiVK0cW4BdVfTu3kd3V/2Ft2W15MIGwNo60YAtLXwLbDt2Hyytswe+1XSCj1QkifxzArugU7giYiIroEVhXk0FeoeZY2js5KB6QNOcJwTSLvnhO1avauUG9qF+OcuSCHjczxaDmBDlrWQnmJ2kzmWlG+m65o73F1m40UFK/AwrgH8KjsuPK7xdiYpDVj6T4d9/krs812U69ncH1nsdcqUrFt/cuY/YXs3NQwzUFcq2iuIlz1fVDXAalL0HDcJP7vHdJbzShK24lvGxz/xdAr9bwLZTkNhK9WyS4oaGb/IfoSrYmK2Cbmsm1sOkBn1FnstVHXj4Wj+1h1poEBcPFRAwHFOcZDrTZRr3noPSpQ6Qj07NYl+POlsRfJNjFnFzLfkq8fhVNaHx7GjD+LGksoRsqSumWYnRoZdvfSNX1bGkbrcXQ330bK3tXccFnFqFLS9tzg3GjTKrE87XguTf9SnTGyv1jLh/EMbsYIWb3RXrtHVHrBvohKkFawGC/vjlOyDT2DRoi1IyIiunqsKshRVZwnLrUEtw5wMffJnTrAVV6I1uSi9Go2qiZqgsggrZKXdwJbzQU53PwRatIhqRz28/7oplRMozEuSG3TXXD6VxxR5q6FtUjW2rmHhD/WchkUl6ng3Ff4eMcMbFRGK9Eh0PsCdyqVgIAOuotGnEahd6C6b7LjXsHC3C3qSAYGNm7QmezPBgx3jO11aK/Ntrxrsw9qOyB1icZAsb1v6iL7BGhsOMwtSNGGng3tYjp6isrFfzgiZQDkfCIOm446c7nKU1CgVHpl/x6m369o3DdkOqIbDbZcLWtReEatYXv0Gm++8+CgqQhQvubFyN7bsKJ8uVxitP4nMrbi4NeLUFZkvKfqMg/qiDLtt7nGXD8XRqq1Y93e2TBm6lrkK8elG3x6Na25Ro3h++PofpGLo6Zvy9IstSMO+47dGr4vZgn6jDQ3BuwW5GuRZd/+jYyeMnQYApSNnYQcM51ulBZmqoEdd390vdh5pFHR8FF6P9UjJy9OKbkgvV5taunpf83O1UREZJ2sKsiB8lTkyE43bL3RsZNv/WwOUYHoEBysdDhakZmMoquSXkrUNJ7tX8eM3vIKWo+UQ0tR73KzWBznSuU4GAOi60ZCke+ZZxj287K4YkDYPzBUdqxYkYitJ5rSNKClpGLFMcOoMmPx7OCZGFLv83iht/c/MCt4mPa4uQbiJu9hCDGzzVyc7kSkVh/JKWxsm9SNRhDdfz5uuuC216NSGz3HxXe0UaVAfCb/+Xh//ExEX6yD2bOn1Cybdr0xrued6mgKLe5q7wNNbQekOkTGTEekvOHdoMNRg1SsOq6uo0PQnXi2250INKrYKd+FIdGQdeyCg6uwwjiY1CQrEJeq3toPiX0d4wwBLbtReGTEOxgXVHcH/1oq3rBL7XfKfQBiH38VOuOWmx2fR/dH1RE8qpJ+w6njanFz1AYN3APhYVR3tw16HiHPrcaABiPAjIKTctAWo1QLpDWm/KxpFsguZO6Qw8SK70//GegxfmqDIIqt10PwvW85/CO0AhNlp9LUTj07DkX0mMYyNFRN3Zb6HQcgR/+W74sYP1kpk8Ed3eDlGPDQALhVVJjpWFR8tj+PKeX2IWPRa/KMep/Ntuci9Lm9G+Q9muKdq5FtLkBUcBhpyiEajMhOTczA8u6DUHls6xORYOgo5VI0OahCRETUNDZBQUHNvrxrUxxDERIVrmRynK8sRlF+KaptneHi5QFHUVZVcBzJSaevzHB/V1nnsCjoK8qRlZaklVgOS/5stdznY+m4gWqQokqPgmy1PwgHj2AEeqm1qIIDb2P2kbUmqdeuGNfnC9zXTbuQrRCV5/M6OMg0+uo8HDlZgejIjsCprzB562L1NcKQmB/xZE/tPeV5SMs4KyqJOngGBMNTRv/Ee3etm4Z3CkwqlQGL8PkAo1qDnViWfL34DlWWqRU/KT9+Dp5KqGsWMCByJZ6M6qA9EnTiffIqvVqsr1GFMHnXGLxc7067K66PXoZHYo169y8X75EVKkfxN0SFu/TgHEw/vEF9rlkew/wpd0MZtMF4vQyfUajM2oCPNsxpdMQCF/9F+OgGtUItVZ6r2yZI+wr3716qPQB6i23ybD81Y0bu80r5Uu0zoboEpeWucHEpQdya2/Cm2aYrrhg/4BtM6qLVsi+yLdvGPjDS7nV8dOew2uBNwb7n8OixxgJMYh1jxDr21NbR8JmM913yV3hju8noK008nqETx8pt4lgxeq2Ds9gPooInv6e72v8DNwVdaN9dhhtXY9S4MLXj0UaaXrjctxWD+rsBKaux4d1XtVJRSRbvHSLea2g9oy8TG8XWsbYfqpq8Xdg1V/zNehXl59F1/vh6HQ7bOzsqd0nkkKdVhmBGwS7smT9DGcpUEbQI/WZrQ58KpssqLaqAi7sjSncvwI4VsgPPqQh5YzbC3Ytx8sOhSLlAoMXw+cr2LsCfyw2df4plTZ+Hfj3rgidVYpnK6tkbRpwRf3uR+NuJct7UeHR66VV0NQRkxAGjr4045CJ56VicMXpf07ZloFj3Veq+EZTtB+09ZUk4tDoXYVMGwMVkv5m+T3YQrZfHs9Hy9Emrsf29V80ESVTj+qwTvwvimEz7DrM3vWcmA+pCXDFp0DcYH6ZDZdIKPLpj6cWb/NT+hiVizcqHsUIrJiIiutKsK5NDqkhGyqF9SM8tRqWNGzx8/eHl7Qa70lxkn9iG4yctI8BBFkQej6Ki5RmgdkAZ6C7qEulxWP/jRDzaIMAhlWBN3MtYdTAVpfJqV1Y6HfQoOLUFq76fhjeyzI82sf/EUqw/mIjsIlEZdPBCoKGzy/N5SDv6HRb+d2LDAIckK4HtjCbtgltW7ozLXUzaazjo3Oo9r1SuJZO/p2uQ/VCCjUfEZ//xOxxJz0Ol/IxO2usrxboe/Ar/PtpSlesMpJ3OQKkMTNgarZe92EZ5qYjbMgdPXiDAIZVmzsAbP69FQk6JkqlR+zfkJPaNsbiEGVi4/Qiy5U61115TVYLsxO/w8Tf3YONF756WYPWuWfj3LvE3xH682LZsG/vAyLmfkFDbFUAG4i6YVSTW8bA43n/Rtj209RObXO67Xb8/hydNAxxSE49n6BfjjZ9W4IhYliRfU5kvlrNhlhKINAptXVNVv47HlkWrcTKlGHpR+VaGmxWfsaooF2fWLcCmBpVySbzGeHhaLcAh2ToalbvUlStOzcC+RWtxJqtYCTQor3GoQGnWMRz5+CHs2Hx51WxznDsYjwKzBYVLJ2HLpxuUZcrPJ4Mxcrn2NcU4u38D9iz4WyMBDmk1zsyfh/27k1AsAwhi59d+Nmd32JtcMTVtW6ahdMXfsOsPdRnK9rMtRmH8Wvz52nhkN9qrs3xf3WdTAiPa8vR5SUj8+lVsu0CAQ1pzbKfaaXTgaPz1ctuz6R7DECWNowSH4y8hwEFERHQNWV8mhxVhJkcbZ7gLVrQTC9c8d8GKNBER0YUZZXrlbMCbv86p39SxUcG4b/AnGBeqQ+WJpXh014pLC3Iwk4OIiK4R68vkICIiIrI6JVi97zukyCwVn1F4JKauz6YLiez8vxgjszgqErFu/yUGOKTiDG24cd3FO00mIiJqQQxyEBEREVmDqsV4Y8NOFJwHPHvOxEudo7UnzHPxnI9ZQyPgAD0Sts3Cistpd3X+MLKV/mfqd4JNRER0pTHIQURERGQlSguewztbE5V+akKGvo5ZpoPcGDjNxOujBsLTRo+0HXPwZqb5/pwatwEr4uRyZEDlH1g69jPMH/wJng3srT5NRER0hTDIQURERGRFEk7PwsIdqShI+Q1rTEfjNSj/DbtO5yF7z3t4OWlLkzobTUt7GG/8ugVpeXrAI1jpPDuyvdGoTERERFcAOx61YOx4lIiIiIiIiKwJMzmIiIiIiIiIyCIwyEFEREREREREFoFBDiIiIiIiIiKyCAxyELVCss8Rv8Aw7RERERERERFdCgY5iIiIiIiIiMgicHQVC8bRVdoujh5DRNbIvUOQNnflFZ09pc0RERGRJWEmBxERERERERFZBAY5iIiIiIiIiMgiMMhBRERERERERBaBQQ4iIiIiIiIisggMchAREbU0hwGwDxzGH1mz2sH+1jno8ewU2GslRETUDAHTEDJvDtx9tMdEVo6jq1gwjq7SdnF0FaI2zPNVRL8wHv6OQE3WBmybOwt67alrzeW+rRjU3017VCd7TSwO/ao9uMLsb56D2DtD4IBCJL/3BLKOak8I12p0Fb/Z4zC9j4eYK8TexWuwbqsdBr4zGaP8RFHxYSx79ADSlFdeO7Fz78WtwdqDWob11R62ah4Y89E49HVr5et833C8cEtnIHUz5r5wWitsSzpjyn+GI0R7VKv4AJY+ehhZ2kNqritzPDftXOQDt5lvoXt3B+BcCo7NexFFOdpTRFbKqm4yuQSNRnTfS5l6wkV7DxFdQe3sMGVyD3yx8C5s+vR+bF+uTZ+KxwtvwJLJztoLrzVnvPDMDfj1k5uxcIhWRE1kh7+FDsJ3N0zA5x21IkvTK1YJcEi2fqHwVGevgAHwmLga/d7Yhe43akUXUZmRhMxEw5SG4krtiaul5/+gqyHA8eE/6gU4rqWKcsOGqER5ofy/GuXlSoFQjSptrpasCP/nXrzwUQxk3cMcWVlRXjNXVJhbQOHpFJxMMky5KNXKieorQWrtcSKmnBKt3JI4I/a56/Hw0jEYNVQrshCXfS5S5KD4vbk4llwJ23Yh6Dbrf+DooD1FZKWYSUtE10YXHyyZOwlPju2FEA9n6GrKoC/XJnEBo/MIREhHnfbia80HPWIC4erUWtanLXNBTGgwvFwt+Aps22qczFVnSw9vhTZ7BXRD+15h8HB3vORmH/oNU3Fk0Xht+hLZZdoTV4PDHQie3gsyjyR3/f9D1sFzankrUFBo2BBlKDikzbYyKYu3YdVLhileVGuIzMnHttrjREx78rVyS+KN6B4B8HZysLgmb00/FyWi6J1lSC0Slbv2vdBl6kitnMg6WVWQo/TUbziyt/EpXlyVKm13igpRobyDiK4MO7zwwA2I8bIDzp3Aj/+3EoOn/xcjHtamBz/HxGdX4f1fLPEOFFm8yuVIeSMWG2bGYseSBajRiq1bOzhPvxUdZROe9D+Q8m2iVt565RZo55+8Qqb4E9E1c8nnoso/kLFiP4rFrFv/KfDrrhYTWSNmctRyg1eAN2xQhbys042kgxFRi2gXhL5BMiuiDIe/2465B6vVciPpGXr8eLRhORG1QcEPILhXOzFzDqlf/6v1/caW6tV1qtTDkBleVc3zDxFdZc09Fx38EKeOyiYv7RA8YRoremS12PGoxsazF7qHe8OmLBUn4hMtIpODHY+2XRbf8eiAHvh1Ri+4yiDHyv/ioV+08gtpF4hlC29ApAOQ/sdKTPy3+R/9F+bcj9tk34WnNmHii6eQrhar2jnjyb8OwO09/es3PSkvQ0n2Xrz9YjLWa0WYMgLbb77EThDFsgaLZTXg5YoXpvXF9bKpi4OdKKiGvjgPKbu24p/LSpCgvkqlLM8Le/61Gtujb8AjAwKhsytD+vZf8eTiMtzz4s24K9JD/IlCJKz5BdO+aamuLO0wvlMPTA4LQ0dPrQlJTSVKClKwI+4AXi813c6d8PntQxCMM/jph214Uyut1XEINvfvBJQcwge/x2OVLHONwtobeoj9fQmM39ccXZdg0OMD4JKyGhve/RLOY19D9NBu8NA6XKrKS8LxZTOQmWLahdur6PHeePgW7cKOlx5CacfZCJo8HqFBbrAXV4s1pbk4s34BEv9Yq73eQHuf9qiW4e9oD035Pn0APUKKcfLDoUgpmo2Q+8WyAt2UC9OaimLkbl+GI6uX1GWDGD6X9vCCLrJsYCpC3piNcPeLdDzaYFvOQ4+RYXDT+h0pyzqA458+j7MZjXfN6fzQJ4jt2w41p3/Fnn8uazS7xT3ifkx/bDQ6ia9n1alf8N7Sbaifz9Uewx56Cjd0sgf0SVj75qfYbS5iYh+J25+4B7297FGSuAZLV+xEgfaUgXHHoxgag8cfi4WnUeeMtR0AmuuA0tA55QU6c7zg+8W5oe/D/dG3mx+8lXODUFmIrKTDWLMoBVl5alHjDJ1LXkKnh17OCL8jHP1iQxDo5QEnbXFV5fk4E78f6xenI7eFWw7ZX9cZo+7ogeiO7Y2WVwY4OcP+AuvsOSYcI26JQVcfV7UZQnUZcjOOYtOyozger7ykIXFe7/q3/hgRK7al0XldLq8iax+WvZDSYN8rxPtC7ovBqD4h8HPT3lctKpY1dnCS+6SxjkfFvot9sA8GyuYS2nm9qjgfx3duw0+flrR4AM+wLWPFtrRXFqdHaV4Ktn61D3v/vITK7yUcq02jdbxZuA1zl+hxx9PDEe0pVrA4Ad//324cCYzEtPv6ILCdqLen78N/X0lAmulxZtgH/cPh1049UJTj8sA+rP1XJgqMX2/4HJeisX0X5Y8R98SiV7A3XNTFNb48I00+nm/vjjE3RCLYcDzL/jUK0rF33W5s+qGRtoKXey4yJ3gmop7vD3exbknznkB2qlZ+AV43PYtZ46LgXJGObctfxreHrnaHTUQtiwE+hSGLAyhMP8mmKkRX2q5MpCu/n86IubUXHvBSSi/sXBo2HlerOwE9u+I2Zc5Ep1D0VeISeiTEmQY4PLDwzbswZUAQXMVVSm3/H+XiIlFcqLi2d4W39lJFpVEfIeVGAYXaMuPJzIVmlyB8MX88bustlleZh5TkZKRklEDn5oPIUeOxZE4QrtNeWscVAUP64pHBgdBVymU6I6BfFJ587AbcFemqLsfOA5E39sAD6huax8Ydb113B57u01UNcFSUQ19WLsod4OoVgdGj7sB3oe5odv+g5ytRLP6u/NvK3zeE1vV1ZXVTZcuOROLVHeFPL8d1Y9QAh76sAlWihm3vFYbop1chpKv2OlPu3nCLWYIBz0xFRIgbbCsroBfHrK2LN4LGv4ruQwO1FxqI58Xfrp0u64dEB5eBq3Ddc1MRHugm/pT6fltHN/iOnIF+U6ZqrxNq6i/HECyoke8xKlem0rrnW4Rjd4S8ILdlGNwc1GXIv+/sJyoNTy9Ch0Z7WB0rdoPM4qhE1p9fX3id8jbhm81qNqV90GhMGtZeLdd4DvsLhssAB0pw6L+fmw9wCP43jVMCHJJrxEgMD1VmG7f1MD689z+Ya1QJzFqwBnNl2aVUKi7HiEhMf+cOjFEqyeKUIs4h5fK77eABv65DxHOjMGKE9toW4PfgKEwaHYtwHw841chliamyGvZO7RHS53o8/HaMUhFtKd5/ux5PPTEcfTuJCqH4Nhs+n71SIWxc4NNj8fjUQYj2cUZJuuw08zSyKnTw7tQHE/93LMaY2ybivD7m7QmYOLAzvMV5XVY8jZfn4uUKLRZXXxdv3CreN0XsCxngMLyvSnwXlQBHY7p0xqS378CtfcTyKvORIjv2TBe/S27eiB59B56a27lFO653uW+Iti3dUZF3WulINK3YDi4+kRjzhFj/+4yC9deKhw9uffx6RLuJCrz8KXSLxJCxIZj4YH8EOupRVS3WN6A/Rk8y2a5i34168w51HziWIE1uyzO5qHAQx+XAUXjc9LgUv8nqvpVT3a9E3T43nhr+JrvcNQgz/3cUhoR5i32kHZeG74Fc3nvi2OuivdhI045nHaJfuwOPT+ojvneusNfWXW4LJ8/OGDJpAma+FmD+WGmJc1Hqr8hWOu3xgM8NDa80GhLn2lui4Cxrhc4BGDJ6tFpM1IYxk0Ool8VxNBEVFrJFmMnRdll8Jodw3ZQRmHdzkLgUEKoLkXJwP3788hRWZihPmzeqLzZNixLvKcHhZavx0AatXNNv2g1YOEpUPs/F4+NH9+IzrVy6bcateGGAF1B4CB+/sh+fmdwp7Rdqh/Tk6vqBkVpB+GL5COWu6Z6Pf8CT27TiRnlg4cLb0c9DVKpPbcLzL57Cn9ozAd1DseB/hiJEVG7Obv8vxi3W7uYYZY4Y3jNm7v24qZO4mKsUn/jwD5j2rg6vfXIzYpxy8Odbv2D2YeXlTfZE7ARMChYros/A5i3b8KIha8PGCU9EDcekcFnBLMK+33/G32tvpzchk6Med/y/G25BH1dxHbZ7Fe6/0P5uDpOMh7KktYj75HmUyc3t/BDCn5uBEFkpT1uLjW89b1TxNsnIqMhF4ooncOrgMfFgGHyfXoAeIaLalLEBG+fParzCfuNqjBoXdomZHNqDijQcXTIL6YlyWd3g9uC/MKCXm1j5A9jz3FRx9Jm6xEyMRl1mJof2sPjgcuxfvkAJ+qDjPPSYPRa+8nje8BD2/7BLfZGxrjMR/XR/uIlv17Enn0HBBW4QqkPI2iNiwmxMiRUHif40fl/8CbbI76vXCC3LowqZv7+Pjzc13qGi6+jHMXuYITyXj92L38HaTO2hpl4mx+VqaiZHO39M/HAUusrgRvoO/GfeybqsjSh/3PrEKMTK4/Kid90vPZPDe2os+laewtZ1+Sg1Ou953t4fUyZFKqP/pP32JZZ92rBieNlu6YOZ93VXKpFpm37Gfz4xymzwao9b545FrJkhN53uGYLHx4WISmQ+9n6yFus2aU/ADiHPjBHHgjgXVZ7EN4/vwHGju+3eT43FwwPFcwWHsfKlA0gxOa87hdmhPMn0c+kw8J2/qENyFhzFNx/sq5cl4iQqtbOuDzBz11xUyj8Yh4Fig5WL5z4Wz9V+r6NCMOWZIcp5PffPb/HJB43cpb8chjv6Ylum/Pw9Vq6oq9h7Th2Ov47pLLZXLrYtWIdN+7QnzLnSmRzKiNTafkMsZj4cA8dKvfgWZ+GnOZtxfKS6PatObMBbrxi+hHaIfmMC7ggTVwAFB7DsH4frsjzEcTLmjbHoK7ezeM87te8xdhmZTFKfSDw8u79yI6MgfgNWvluXtWF/XTjufXgQAsW+qxL79X2xX2sHM2ni8ez9xBg8fJ1cWj4OrNoofisNx4Md/B4ejntHBCgBk5SfvxX7tQW+d2Y4TP0Afa8T55+cP7HnpQ8vkmHUDw/MfxI9tHTLqmOf49lFv6kPiNooZnIYZXGUZKVaTICDqLX7c6WoyH+5H+nyasLOAyG9R+DJN6dg0zsDMO9GZ4hLzIY2xGOPchHripgh/kpRHWfcE6veXS85fqJegEPq4aOli+TkYL3JhbC0p9EAx+ULmBilBDhQeQI/zK0LcEjpR5OxYLOa1t8hpgumKHPG0vDnZ+p7KpQatLgIrIzHf94tFOunhzq6nA46+febwzECN8oAh7hMP7Jzc12AQzpfjg+ObMTmbPnAHX3CGxsks20o3rsIO97TAhxS2RKc3HBMvegL7KbcTTdLBh0+nKoFOKQtyN58TOwFoWMo6ucYNFNFEg69NVYLcEjHULx6F87KWedAuJkmjlwjxbsXYNdSLcAhZTyPU0fVtBWPTsOU/xsI9VFGVEFRNsouEOCoU4XEb5djt/ye6jpj+F9GiIpeewybOFJtxnLmD6y6QIBDKvntC6w9koOS8nwk//411purJ7UEtxjcu3QCZpmZ7o1t+CX1fDBWCXDg3FF8+4pRgEOKz8RP7+4QZwDBrTuGjldKmy13+QGs+6J+gEMq+GE3dp5R52XGQ/PZYeANskIozirxG7HMuEIo5dU0UtFyxsDrZIBDrOvOjUYBDqkaKW9txwFZIXUIR98JaqmBn4/6LazKzWkQ4JAaBjiE0TEYpJzS0rHh3foBDslcFoDiru5KxVsGW9bNMQpwSPEp+HaT+gvi3SO80WGFL0f0jd2VAFTViW31AhxSwfJt2KYszhvR1zf3x6D5SuN3qfutuhryK27voEPapm04cKJue9o7GJ1o+0RiiAxwyJFglhoFOKS8fKxbfVTZvk5dIhHbAllGXe+IVTM1s3Zg2T/rN0up+vMklq1Sl2cfHIWBPdTyph/P/hjRX80LTdv4m1GAQ6pG1icb8W28vGugQ0i/8Cs2xHhlara6fp4+4ht2MXuw4j8/I+XsORSf2Y5vVzHAQW2f1Qc5bNxD4SO//VXpyMmr/yNCRFfWn2sPYeLDKzH3m71IKZQXQnbQeXfFyPvvwhdv98CTDVJHy/BFnNbuPzgUs40vfnqHoqtyXZGHg380vOe9Pkl7X5cRWPZaFzzS8wIpyc00MVrryyM1GQuML940e46KypeccfNBj05KUS390UN4XlwYGkvftb9B0Ka5+vh1hBL2KUnCH2bri5X4Nl1Ls+jQAZPUubanaBeOLDfq08Jge5I4UiQftAtTZkxU4Mw3DyHdtM+OkgrlIl5qySMoe8MMZJuONVtQJC6JJUfYt0QdtLnktlyxXHtQp6pC/e20d1RCGQ04dtTyYs6mX0Zz0Ays/fw3nBF/2j5gJO6dfo/aTKXoIL76dJP5Phbqycfur97HgnnvYPmmK9mZuB2cnJzNTw0OEDt0DVcrPwXHTiLFzLkBJ1JwTLnVroNf2JWvvJ7JbniubDo/hCjR6RIc23oZAyf36IyuyskoF8c3msuAyEeKFqTyD1a3n8HJJDWwYN9lOB5/IxzhsRf/Vnr38Fezks4kY6fJufZCuor1lM0TqlJTcMTMviuPz1GPS3FeDzE5r18+f3QLlkEAPU7uNxd+r8bJdPXE7RnorQSIrp107Fhmsr/Lj2LTBTKDPAcHqUGHnBM4YC4L5bdMqLvcG52a3XTLG11kdFRI2XeyfnDK4OdTOKGkb3gjMFYpEZp4PN8SAOX+AU5j/0rz9YqUfVq2iI8/gpWSKyC7VFwxCQ4Oyo3ci6k69CUWvvIYXp3/EXZyfGqyAFYe5HBB+wBf5UK19MwJnGMWB9E1UI0fv4/HPU+uxMRnf8D6hBzlTrnOrxemzOyBKSZ3cfZ8fRwJspbp0AXX/aXugva2IaHoIGcy4vFFnFJUz55lW7HysKzW2sE1dDAe+J8p2L70dqx5MQqzB7dkdVVc4+rUCyr4ROGL14Y2nG4NlPkZgitcTa5w6vX/oTHb50czRThpjQ+Kihrt5HNffr4ajHFtD0OLCotRaahuu8HZR5utR4+KApMAh3T8IeyYKYeHHQ8l0aWl1JhZlrXL24RlP8SLyoA9vIM6in9LEPfd10i8chGLyyebAMi28mampftMAwiu8NTOZwVZjQUXqnEmU20b5tnBXfm/RXjpEDg+BCOeG4JJb9RNo8Iufo/3kg31Us/ByEdmvWyMi/DQKcEDiKp6l7vrr59hivVSz4tOLvXXt/zTbVh1SFb27eAZNgiTnpmMFz4bh+kvd0fX68yf1wO17I+C7AtnA5lyctDO697dza7jpHGBUHMVXODZ7BOmAxy1xAe/QWaWJaZRak1a6bzz2uZyVKNcywiqValXK9iNcHTS1t0lFGPMfLZJb3RFByWaLD6belA1g/gbShSoEGdTlAIzcpGpxTE8/bSt2dTjuYOrGnQqzkOmuUCmtEk8p8y4w3+oMkNELcyqgxw27uHwldf5VdnIyTcfbSWiqyc9oxCvzPkFDy07pFauPXrhtjuVp+oYd0Da29ABqQdu6i5vBeqRsCsZe5QyU3osfOsnTJz3E9bHJePsuWpxHemBDpF9cddjU7BpbhdMbIG02Ho8AhESGmpm8tGCHK2cvZ26nudbPsjSehRDf/G0ALpGXD3dtAqwVIbyy6uXtkkOho4vW2gIW++/DceshX/BtLuGYEiPEISH1U0hnq3pTOQKP6N1u7T11OPk/LWY+8+1WLcvBVnaed2vax9MfGIyZr0ZDu8WPq/bewaYXcdwpUPLlqaDZydzyxKTT2tI72qmdt7mP1tYAAyDfV0ddrA3LK/mKvzeedlpAbEaVF1SEz4iulxWHOSoy+KoyExG6QW7eyeiqylhQzKOFavz3oa7KkY++/W42leBVyhG9hb/j+qCnjJTvvIUDv4sn2hc+tE8vPLuVox7VM0c+fFwppo50mkwHpzWQnc1tWukkoM/YPDUzy8wXUonplfG2UrtysrJGY31o97HzV0NchQV1R/uVuN4KTmwrZWnu3L+l81SKqyg4nwtVWRrUaQOAeZHumhM+J2YPlo2EahCbrYMbPpg8IN/QUTjQxq0cnJkBnXO1aOxc40d/DqozxXkFSn/N8voPrj3etlBpR5pf67DJ/+4WLZJMxTqtWZBzvCs7dfASDsHGG7g11NbyTuNdQ/VX78GU2OjS8TnY++CbVj60JeY+481+OlQptIcwKnTIEx40CT7Qxm5SuwDd/P7wEWspzlV2nm99IA20kWj0yV0hHlR1drPSAn2fmJuGUZTi3YmenVU12gX3We2mf9MRtPKFepLm64SFVpWiKvZrD2pPby1S42zWiZVk4/nUu19Tq6N97fRw0PLEilE5k5lpuX5uog1F8RvPRPVyRpZbZCjNoujJhfZOVptiohaCTmMnzpXVKhdcBiLO469SncRXuh3oxceGRCqVMb1x4+b7QOjMTJzZO5bv2LlUTWxtkNgY1dAhjs7Yr3MdztQz/pUtemBa2iQmY5Fryz7kMl48u1lWLDoX3j18dFqvxtm/JaXqwR34NUF48zeEHTC5CB1dIqSjDNYrcwZa48GfRU6dMLnPS/WGF1sS21z6i40VKM5Dl1w2+zF4rMtw5tzZmFIoxesF2c/vJt6kZl3FNlttqWI2INaXcHOeYA60xqdzlbbwbv7wtl8/bEh+0hMuLMv5CFWcugLfPzB14iTdX73nrj7QdkR6cW0R/+7n8Ls52dh6gi1L4VrrwypWgWq0c4p+4QjVnmiECd3mzn3XSa/WG2Yyqx9WPVBLnJNundwvtzv4IUcKsJZpTJp3K+BgQ6xL16PaHOdR+zMRKoS/PFD1wktsD7phTgwfwO+jVfP696B9fvxyMpWg0f2ft4N98GIGEwbYdqptepkqrrxXMI6m993LSoLKUrkwhXhSi/WliX3mBqEgl8QYpvUf4khCKSD/UV/k3NwRuljQofw/jLgZ8b4LuiqPHEax75XSpp+PO/OVINODp3R9z7zx3PXQeHqeqSewhGlpOXZ+3uq572cNPP9kJjwGvQoZs1djP+d/VcMbMZvK1FrYaVBDqMsjvSTKGIWB9HV1dMHs0fq0M9cGrGXM154eShilCuANBxebwgwGKvGx7vUHuN0YYNxVxd5vyIPe341072+wg5TbvTCSMOIksa8vNCvk3pHr+RsY3c185CutNd1RsytvfBAY5EDzZ71x5EiL47ceuGRuV0wxXS5Xjo8MLkHltzf8unGQ8ffghDl4zjALWoibpeZLuYUHsM+ZXO5o8/A/njW2ehizMYJT8eOxiClBVAqNiUZ31EWF35K3csFMV07YZBSBnR07Iilw4cg+KK36kuRqI0h2jFqEF6+nFv7w+7ByFD1oLH3jMUtt/dT5i+Xbc9F6DlUDldSgcxNy9VgT5v0JQq1W7gdhj4P/46tZAgWUwcTUaTs8gB4jrqUtgPtMezBe9BDdklRdBA/fJeAKiThhy92Kh072ncajekTIi8YuHAdfQ/GRvvA1ak9Qm/4C24yX2+96lLWH4VyKnGLxeTXOsPT+FwSFYCJj6nDXJYn7cOmZmcDiDOl4Y65mw+CjTpyto/1x5h3JmCKYczIFpGJ/UnqtylkaH+EG5bn5Yohb9+BW4NlFoVWVk8u9hyW6VQ6hNw0BreOd26wb536eWPIy90Rrj1W2SFwTHu4mBuKy6s9ojur5/WCs/UzYgo2J6uVULfuuPnhus/veXsfPP5wLDwrDXfw6yv/5ThOKuf1WNz7ZjgCTZcr+z25JwZjprbENq3Ggd0pSiDAs88oTHnYA04mXx37sPaInR2LvgO1grbk55M4IL/MDp1x67N90NW0w9h2dvC+JRx3PFU/QFUnH5lK4MIZseNiEXLB3+Rq7PzzpLIt7YMH4d6n2tfblvaju2P6HWrQoWDPAXUkH0UTj+czKdhxQr5PHM+jR2LEGOPPZoeQp0bh1i7ytkw+dq5tJDOp2QLg3lWNVBQl7Wl8qPNaURg9bjAC3dvBK3QEJtwzupUEhomaziYoKMjqsphs3Huia4Qv7GpycfrgfhSZq0NZgM5hUdBXlCMrLUkrsRyW/NkkS/98mDIC22/WRiCpLIO+9juog84wJEF1IRLW/IJp3zRWBfXCko9uRYzhYiVvL+b+PR4/ag/r88DCD25HP+WOT7VR555Gyzt3HCvn7MJC0w7UNAF3DMYXE7uId0jGf0M4tR0j5tRPB7hubF+8NjlKuROtqP2cdcss2bsaN76n3a3VtklJ3A+48V012PLCnPtxm9hMKb98jntWyhLD5yjEno/NN3UZ+fQy3FZbEziHQ589hs/Md1KiZl6MGgKlE39JHHN6cTWkcxKXe7IpSk0+9m1aj7+bJLsNChqOt3ppkZsq8Z5KO+jkLfrz5chIyoJbeDBcSw7hg9/jzXdq6hyB70b3gZehuYu2XEVJPD7Ynmgmc0S44SUsmFBXUys78BFeXLJde2Si6xIMenyAehe7sgLF2WkoFRevDh0C0d7LUYnwF+9cgF0rTUcLeRU93hsPXxTj5IdDkXJcK76Y4aswbGyo9kCwdYROC+Doy+rGFCnd+w72ff2l9gjwffoAeoQA2WticehXrbDWJaxL0CL0mz2stuPBmooKVBm2ZcEu7Jk/w6gDwMno9NwshBqlQdg7q9ui3vuQjPjnJqlNwiTDtizahR0vPdTgrqDLfVsxqL/4cqWsxoZ3X9VK63N+9FPE9nJAzelfseefyxq96HbvEIaICbMxJVZ+c0pwaOUCfHu8rsrpOeJxPHGD7IS0Cmd+ex9Lt5hva+Q/dhYeGWgY5LcEcZ+9iR+StYeaorOntLkmuG84Xrils9rxaCPNBfxmj8P0PmLPpG6u18zCRbz3EfFe9SZwNcqVc4kOToZzUd4BLHvWZFhNUWm5Y+kgo0q+HNVF/eJWlZfVVcoLD2P5rAQ1kCL1icTDs9XASe2y7GSmnFxWNQqKy+Dp5oqCfWvw4YIWaLrSpTOmvDgcIUrGjro8eycZtKhG7p6fsddnHMYEF2LvYpMmHe1cMfC1WzAqwHAyMmwXcYw6iPcrmyYF39+7zejOtwfGfDQOfbXzuuH19bbluQR889puHDc5rwfOHotpfbTjQ5yby+V75DYpT8FPqwsx5J5YeJrsN8llXB9Mu0cd2lUh36ud1w3LLNjzPT58t/lZOPJvhv/vaEyKMhzH1WJfawEYsU3UxYmK8vtrscG4ycOk/ph1kzg2DYz2d902EofKvvVY+kFz1tOw/U/jp3s344AsGhqDxx8T2874e2H4rphuz37hmDZjEAIN2V3VYlsqQYO6YxtJGzH3JXOjywjjB2HWXVpGhPG2kVJ34J3X67+v3j6vlsOxix1Xu21kYHEzPn7JZGjgJh/PYtu8LbaN4UDRjpO6Y7kMJ39eg1UmQwO3mOCZiHq+P9xRiKR5TyA7VStvlAduee59jDZk1VTG49un38Q1ak1L1CKsMJOjLoujKueUxQY4iFq11FNIyMiDXlyc622dRaXaMIkKYXEOUuI24f9m/3CBAIeUh43H6y7K0+OONxLgkPTISE5DiVxetaiQmywvYfNPeGVW4wEOKf377Xh+2XYk5Baa/A05qRdJxv5cuxfT5v2EPxJyxHLFiUZc3CivddCjJCMef6z8L54wBDha0NbVPyNFqdVWojj+G/zQWIBDqjyD+9evwU/HzqCkQqyjoxN0zmKjVBYhL2UHPvilYYBD2nFqG97dl4QSGbWxF+9xskVJXiJ++30NJqVeQj8CZYl4bMNm7EvPh15elWrLVScHcWnfiC1f4I9kteZXVXAAP3/XSIDDRI2DI9wCw+AfEYYOokJUmnYARxZNMhPgaAZHnVh3x7rJKEOlfnmjn65pTs3Anne/xMmUYuhFBcHW0WhZLmoAo44O9qLMeH0Mz9d7n7NO+Y1sSWU/74c8Mmw7D4FfX7XMHPsef8EEJcABlMR9XS/AIRVs+gKbz8gye3Qa/TAmdDV/vzFTHNdxeep7SxL/wGaTAMe1VLpiM97/YDP2nskXFR/DELTimC7OxZHf1uCdBgEOyQ4uyusMU91xJCtdteXtTPbdvgT8+4NtOJJTIiqA2rJsq1Gak4B1n3yND7e2cIc0J05j5VsbcaB2eWI9C05j26rv8cm7hXWVUFPnSrDzH99i6ZoDSCkoQ1XtdhHvP5eLk/s2Y9k/jAMckh6ZSenIlUGe2tfLSVRY5bbctBYfzmwY4JDSFqzDyk2nkSsrujJgYFuGrOPbsFQsQ8kwaETpmn348J9rsel4Lkq187qyTHFez00/ik0rvhWfs6XO63qcFMv6cPkOsf8KlWPFsK/tK/ORdmgHVr21rn6AQzKsk2GqbZJkvI2cxWm3pb/ll2nPSSyb9T1+2if2gwy+2BnWV2znnBTsXSO+C/MaCXBIq3fg40/VbSP3f73vgZnPlragbltWKUEpdVnl8vj877d43zTAITX5eC7EOnE8r9yUgKxi8dm0fWKPMuSe2Ydv3vr+ygU40A7Ot0RDJsJVJW9D7kUDHFIhfl76DdLMZloRtU1WmclhLZjJ0XZZfCZHC3ngmfF4JEZUiM7F47NZe/Fxg4oBWa2LZB/Q1dYObjM/QHR3B9Tk/Im4lz6s62/SiHsHLcPrKmhWJgcRUWvUfSaiZ/aHG3JwYt7TlxjkkNrhlmcWY7Q8BZ/5Aa/O/wbssZDaMivM5CAiizCkB+6VAQ4hfdchBjiIWrVzKF7+KzIrxIWHz3WIfHCkVk5ERC3CYST8psoAh2yO+f1lBDgA59ipGKjEmCtxYtsPDHBQm8cgBxG1OZGDu+Cbab3U/i6ytmPBv69U2icRtZj8lUhZul+5eHYbOA0hN0eo5URE1EwRcJ81DaHtoWTLJXz6h1Z+If0w4alnMeu1f2HOQ4PhhkpkbVqIJVvYboXaPgY5iKht+MsAbPrkLjFNwbLHBiPASZTl7cfH807gT/UVRNTaHfw/HP8uRVxKO8D/zr/Dt6tWTkRETeQD5+l/R7dQB9Tkx+PI++abAzYUgMDIKAS6ViIveTt+fP8pvPX1gcb7GiFqQxjkIKK2wdBxp3FnoS8cwmeNjRpLRK1S1S9zcXB9OopPbEPepY5eQ0REjchB2e4jKMhJxNF35qJUGV73UvyAhTOmYfbsx/DPBR/hjwS2+yXLwY5HLRg7Hm272PEoEVkjdjxKREREzcUghwVjkKPtYpCDiIiIiIjo8rG5ChERERERERFZBAY5iIiIiIiIiMgiMMhB1AqdTopnUxUiIiIiIqLLxCAHEREREREREVkEBjmIiIiIiIiIyCIwyEFEREREREREFoFBDiIiIiIiIiKyCAxyEBEREREREZFFYJCDiIiIiIiIiCwCgxxErVnnT/DllI348p6N+PzmzzDLJ1p7goiIiIiIiEwxyEHUmpWeQkpyItIKAQevYAy48R3MDwzWniQiIiIiIiJjNkFBQee1eeuh84VXx1B08HSDzl4tqtYXoyQnFdlZmdBbyBbpHBYFfUU5stKStBLLYcmfzTxXRHf5BC8N6AgU7cTCNc9hm/YMERERERERqawuk8POPQYR0T3R0dsNDtCLirKY9DWw1bnBI1A8F9MTLnbai4lajRIcObEWCXox6x6EPk5qKREREREREdWxriCHrT86hvtDZ1uKnKObEX9gMxIPi+nQ74iP24nMEvEana8SACFqfTJQWi7/d0M7nVJARERERERERqwryOHiDXf5iUszUXBO3hI3UlOMvOxcZdbR0xtaKxYiIiIiIiIiaiOsK8hhYwsb+b+jM+yVmfocHJzVGX0FqtU5IiIiIiIiImojrCvIcS4fskUK7APg5+OiFNWy80UHP7WstCgX1tcbKxEREREREVHbZl1BjqrTyDhdrAQw2nUejPDO/tDJjA5dAAKiesJLB5wvOYn0PJOmLEStQh7OVcj/ddCxTw4iIiIiIqIGrCvIIeizd+NkSh70NYCTbwwiet2AqB5RaK+rQXnWYSQkJFvMELJkaeJwPFfpHReR3R5DpFpIREREREREGqsLcgA1qChOR4kySoVgq/XTobHCDUJtyPr9i7ErD3AIuhuvT/wGCwZ/gvkRd2rPEhERERERWTerq9PrOvRB1x4x8HLSo+j0PhyP+x2JJ06jRG8LJ78YRMT0hIud9mKi1ub8Zmw9GocCGaRz9EJgaARC/DqqzxEREREREVk56wpyuEQhNMQL9jXFyIjfjNPZeaiqqYG+8DhSD29HhtISwBfBoZ05hCy1SoGd38GTQ3rDsywOq75/ANNXXo/JWxdrzxIREREREVk3qwpyuHgFqMGLs8nIUzpwNHK+FHmnUiG7HLXx8IcLoxzU6gRjXHgEHMRRmhA3C6tLU1GqPUNERERERETWlslh6HzD9mIf2xZ2VteQh1q/LvB0lf/rUXpOKSAiIiIiIiIjVlWVryzX7nt36IZOXs7qvIG9F3yCgqGMzFmWh1KOIktERERERETUplhVkEOfc1DtdwP28AgdgujeIxERMxwRPW5AVGwf+Mq75LK/jpOJMG3NQkREREREREStm3U1ypD9biRsxonk0yg5p0c17KFz1EGnA6oripF/+iAS9+9s2F8HEREREREREbV61tfzxHk9KvKOI/XoZhyL+w1H9srpdxw/vBPp2dnQn9deR0RERERERERtCrvXJGozOkCnjPqjRyWDcURERERERA0wyEHURkQGj0VkOzFzLhUJxWoZERERERER1WGQg6g183oR8wd/ggU3r8PrQ4LhIIrSDizFGvVZIiIiIiIiMsIgB1Fr5hKEkNAIBLbXoTIvFbs2zMLLyUe0J4mIiIiIiMiYTVBQEFv3W6jOYVHQV5QjKy1JK7EclvzZiIiIiIiIqGmYyUFEREREREREFoFBDiIiIiIiIiKyCAxyEBEREREREZFFYJCD2qTTSfHsj4OIiIiIiIjqYZCDiIiIiIiIiCwCgxxEREREREREZBEY5CAiIiIiIiIii8AgBxERERERERFZBAY5iIiIiIiIiMgiMMhBRERERERERBaBQQ4iIiIiIiIisggMchARERERERGRRbAJCgo6r81bD50vvDqGwsfLDfYyzFNThfLiDGSdSkSJvkZ9jQXoHBYFfUU5stKStBIiIiIiIiIiy2V1mRx27jGIiO6Jjt4uqC7ORl52JgpLAUePzgjuMRwd3e21VxIRERERERFRW2JdQQ5dKILC/aFDMTKP/IETJw4i4/RhnEn4A8cTs1EFe3iFx8DdTns9EREREREREbUZVhXkaOcbjHbiE+uzjuFsef1mKdVFh5FxVszYesPX200tJCIiIiIiIqI2w4qCHB5w8VSbopSUFCr/11eD4sJcZc7R0xtstEJERERERETUtlhRkMMR9o7abCPOl5dCL2fauYhXExEREREREVFbYkVBjmJUlKhzjg46dcZUdRWq5P+2VtWKh4iIiIiIiMgiWFFtvgwl+aXKnEtAN7iatkexcYarXwCctYdERERERERE1LbYBAUFndfmLZ+NC7wiB6Ojq5ivqcG5gmyUVwF2zl5wddHBrjbkk42UvQehhkTars5hUdBXlCMrLUkrISIiIiIiIrJc1tUu43wp8hK2IeV0NkqrgXZe/vDy9Ye7UyXKck4iJTEZ5+TrKsrUZitERERERERE1GZYVybHxXj0RHQXX5zPOYj4U9laYdvFTA4iIiIiIiKyJuxhs5Y93L18lbmiInUoWSIiIiIiIiJqOxjk0Nh5RKGjl5gpS0VOYY1aSERERERERERthtUHOWwcPODRaTC6dvGFfU0xMk4mooINeIiIiIiIiIjaHCvrk8MbvjFR8NAe2TnUjahyXp+HjMT9yC+3nCwO9slBRERERERE1sTKMjlsYeeog06bUKVHaV4q0o9tx9HD+ywqwEFERERERERkbTi6igVjJgcRERERERFZE3Y8SkREREREREQWgUEOIiIiIiIiIrIIDHIQERERERERkUVgkIOIiIiIiIiILAKDHERERERERERkERjkICIiIiIiIiKLwCAHEREREREREVkEBjmIiIiIiIiIyCIwyEFEREREREREFsEmKCjovDZPRERERERERNRmMZODiIiIiIiIiCwCgxxEREREREREZBEY5CAiIiIiIiIii8AgBxERERERERFZBAY5iIiIiIiIiMgiMMhBRERERERERBaBQ8hag47h+HJ6BFxQA31REZK2HcCre8tQqj1NREREREREZAmYyWENyopwNDEDp7MqoXP3RLdbRmDxKFftSSIiIiIiIiLL0PYzOWxd4OofBX8/DzjaAudOb0dy9kVyFGyc4doxBn7ebnBykHGeGlQV5yInIxF5xWXqayxU+4goLJ4UBJeaLKyeH4d/12hPEBEREREREbVxbTaTw8bRFx1ChyOq92AEd1QDHJfEzhcdY4Yo73GyA/QVeuirbGHvJsojhyC8kzdEscXKTzyJPTlixtYL3buqZURERERERESWoE0GOWw8eqJ7TE/4e+mAc9lIP3oc+dpzF+YCry49Id9WVZCIE/t/R+LhzUg88DtOnCmGTGlx8ouBr1ubjf1cggrkFcv/HaBzUgqIiIiIiIiILEKbrM2fL0pH3rk8ZCZuQ/zRg8g/V6EEKC7KNRi+siuKqmycSU5FRe2balCRtRdn8uS8Pbz8O4t/iYiIiIiIiKgtaZspC+dzkXl0H84WXV7/GS5eAUpTlIrMZJQ26IuiCkU56aiWs+6+cGGUg4iIiIiIiKhNseR2GSZc4OQi/69CSYnSXqM+nT/8O/tr/XF4oF07ZYaIiIiIiIiI2girCnLolMBFBfSVSoFKjrTSaTCiesSgQ7u6zeHk6KzNWZ6SCnUDuDhZ0e4nIiIiIiIii2c9tVxbey1LoxQVeqUAOo8ohPcagmA/F9jUlOLsie04fVZ5EWBjuZtm+5kC5X+/3qG4kXEOIiIiIiIishBWWcW1c/SHf/eRiOgSACfbGpRnHUbi/u3ILCxFdYO+OizP6Z0HsTqxAvCKwFPPjMC/psTivVt90FN7noiIiIiIiKgtsp4gR02V2qkofNE5Rm2acv5cOlIP/YGTZzKh10ZaMSRw1FQbt2mxNJX4c18ykgpqAHtn+IV1RFioO9przxIRERERERG1RVaUyVGBqgptVmmaIoefjUeJ3jh1wwWGrjj0eqVNi2XqGI5XJ3VDmNNZrF+2AVPn/ILbFp3EJu1pIiIiIiIiorbIioIcxagoVefOnz2JzEIzw8/ae8FV6Zw0F6Xaay3R+H5BkAPNZO0+jIWnK5GvFhMRERERERG1aVYU5KhBcX4uZKsUmw4BcFd7Ia3H0ScIruL/82czUWzBfXO0d3NU/i8tMqS2EBEREREREbV9VhTkAM4XnkKebIVi641OXSLgVBvosIXOqxdCAmRblTLkZGUqwRAiIiIiIiIiajtsgoKC2mB93hcd+/aEl/aocdlI2XsQ9VqeOIYiNCoc7WR4p6YG+soqwE4Hnb18sgpFKbtx+qwFt1UR/jrlZowPA5J++gUz47RCIiIiIiIiojbOqjI5FBXJSD60D+m5xdDX2ELnqIPOtgYVhaeRemizxQc4iIiIiIiIiCxVG83koOZgJgcRERERERFZIuvL5LB6tnBR+x2VrXOIiIiIiIiILAaDHFbGJTAcQwLlXA5OJCpFRERERERERBaBzVWsgacPXhkTAD93T3T2cVZCW6VxOzD9p4L6nbISERERERERtWHM5LAGzu7oHtERnf0coS8pwLF1m/AYAxxERERERERkYZjJQUREREREREQWgZkcRERERERERGQRGOQgIiIiIiIiIovAIAcRERERERERWQT2yWHB3DsEaXNERERERERElo+ZHERERERERERkERjkICIiIiIiIiKLwCAHEREREREREVkEBjmIiIiIiIiIyCIwyEFEREREREREFgD4/6TPTaWKAAT6AAAAAElFTkSuQmCC;" vertex="1" parent="1">
          <mxGeometry x="35.00473865327376" y="82.9980719866071" width="1081" height="419" as="geometry" />
        </mxCell>
        <mxCell id="AXg9mpy4CLcozAyEGudk-5" style="edgeStyle=orthogonalEdgeStyle;rounded=0;orthogonalLoop=1;jettySize=auto;html=1;strokeColor=#FFFF33;fontSize=12;strokeWidth=3;exitX=0.5;exitY=0;exitDx=0;exitDy=0;" edge="1" parent="1" source="AXg9mpy4CLcozAyEGudk-3" target="AXg9mpy4CLcozAyEGudk-7">
          <mxGeometry relative="1" as="geometry">
            <mxPoint x="511" y="197" as="sourcePoint" />
            <mxPoint x="902" y="167" as="targetPoint" />
            <Array as="points">
              <mxPoint x="496" y="173" />
              <mxPoint x="712" y="173" />
              <mxPoint x="712" y="144" />
            </Array>
          </mxGeometry>
        </mxCell>
        <mxCell id="AXg9mpy4CLcozAyEGudk-3" value="" style="rounded=0;whiteSpace=wrap;html=1;fillStyle=zigzag-line;fillColor=none;strokeWidth=3;perimeterSpacing=1;strokeColor=#FF3333;" vertex="1" parent="1">
          <mxGeometry x="461" y="193" width="69" height="27" as="geometry" />
        </mxCell>
        <mxCell id="AXg9mpy4CLcozAyEGudk-7" value="&lt;div style=&quot;&quot;&gt;&lt;b style=&quot;font-size: 15px; background-color: initial;&quot;&gt;lo que se encuentre dentro de main se ejecuta&lt;/b&gt;&lt;/div&gt;" style="rounded=0;whiteSpace=wrap;html=1;fillColor=#f8cecc;strokeColor=#b85450;align=center;" vertex="1" parent="1">
          <mxGeometry x="894" y="106" width="120" height="81" as="geometry" />
        </mxCell>
        <mxCell id="AXg9mpy4CLcozAyEGudk-9" value="" style="rounded=0;whiteSpace=wrap;html=1;fillColor=none;strokeWidth=3;strokeColor=#FF3333;" vertex="1" parent="1">
          <mxGeometry x="261" y="261" width="145" height="26" as="geometry" />
        </mxCell>
        <mxCell id="AXg9mpy4CLcozAyEGudk-10" value="&lt;div style=&quot;&quot;&gt;&lt;b style=&quot;font-size: 15px; background-color: initial;&quot;&gt;De esta manera se ejecuta correctamente&lt;/b&gt;&lt;/div&gt;" style="rounded=0;whiteSpace=wrap;html=1;fillColor=#f8cecc;strokeColor=#b85450;align=center;" vertex="1" parent="1">
          <mxGeometry x="897" y="220" width="120" height="81" as="geometry" />
        </mxCell>
        <mxCell id="AXg9mpy4CLcozAyEGudk-15" value="" style="endArrow=classic;html=1;rounded=0;exitX=0.5;exitY=1;exitDx=0;exitDy=0;entryX=0;entryY=0.5;entryDx=0;entryDy=0;fillColor=#fff2cc;strokeColor=#FFFF33;strokeWidth=3;" edge="1" parent="1" source="AXg9mpy4CLcozAyEGudk-9" target="AXg9mpy4CLcozAyEGudk-10">
          <mxGeometry width="50" height="50" relative="1" as="geometry">
            <mxPoint x="543" y="304" as="sourcePoint" />
            <mxPoint x="593" y="254" as="targetPoint" />
            <Array as="points">
              <mxPoint x="334" y="314" />
              <mxPoint x="805" y="311" />
              <mxPoint x="805" y="263" />
            </Array>
          </mxGeometry>
        </mxCell>
      </root>
    </mxGraphModel>
  </diagram>
</mxfile>
